<mxfile host="app.diagrams.net" agent="Mozilla/5.0 (X11; Linux x86_64) AppleWebKit/537.36 (KHTML, like Gecko) Chrome/126.0.0.0 Safari/537.36" version="24.7.6">
  <diagram id="R2lEEEUBdFMjLlhIrx00" name="Page-1">
    <mxGraphModel dx="2954" dy="1586" grid="1" gridSize="10" guides="1" tooltips="1" connect="1" arrows="1" fold="1" page="1" pageScale="1" pageWidth="850" pageHeight="1100" math="0" shadow="0" extFonts="Permanent Marker^https://fonts.googleapis.com/css?family=Permanent+Marker">
      <root>
        <mxCell id="0" />
        <mxCell id="1" parent="0" />
        <mxCell id="MHSS6djbWjyrjED063CA-14" value="Animal" style="whiteSpace=wrap;html=1;" parent="1" vertex="1">
          <mxGeometry x="-199" y="-79.91" width="75" height="40" as="geometry" />
        </mxCell>
        <mxCell id="edTjm4dISCqz6r1TiSTo-25" value="Gangue" style="whiteSpace=wrap;html=1;align=center;" parent="1" vertex="1">
          <mxGeometry x="-995" y="1038" width="120" height="40" as="geometry" />
        </mxCell>
        <mxCell id="edTjm4dISCqz6r1TiSTo-26" value="participa" style="shape=rhombus;perimeter=rhombusPerimeter;whiteSpace=wrap;html=1;align=center;" parent="1" vertex="1">
          <mxGeometry x="-581.5" y="1028" width="120" height="60" as="geometry" />
        </mxCell>
        <mxCell id="edTjm4dISCqz6r1TiSTo-37" value="" style="endArrow=none;html=1;rounded=0;exitX=1;exitY=0.5;exitDx=0;exitDy=0;entryX=0;entryY=0.5;entryDx=0;entryDy=0;" parent="1" source="edTjm4dISCqz6r1TiSTo-25" target="edTjm4dISCqz6r1TiSTo-26" edge="1">
          <mxGeometry relative="1" as="geometry">
            <mxPoint x="690" y="-70" as="sourcePoint" />
            <mxPoint x="850" y="-70" as="targetPoint" />
          </mxGeometry>
        </mxCell>
        <mxCell id="edTjm4dISCqz6r1TiSTo-55" value="Jogador (PC)" style="whiteSpace=wrap;html=1;align=center;" parent="1" vertex="1">
          <mxGeometry x="10" y="486.8800000000001" width="100" height="40" as="geometry" />
        </mxCell>
        <mxCell id="edTjm4dISCqz6r1TiSTo-56" value="NPC" style="whiteSpace=wrap;html=1;align=center;" parent="1" vertex="1">
          <mxGeometry x="214" y="1058.75" width="100" height="40" as="geometry" />
        </mxCell>
        <mxCell id="7i5WLGqGZnLkVZAE3K9o-9" value="" style="endArrow=none;html=1;rounded=0;entryX=0.5;entryY=1;entryDx=0;entryDy=0;exitX=1;exitY=0.5;exitDx=0;exitDy=0;" parent="1" source="zVHzj3ecezakpNuDU_De-9" target="MHSS6djbWjyrjED063CA-14" edge="1">
          <mxGeometry width="50" height="50" relative="1" as="geometry">
            <mxPoint x="-143.75" y="-25.86999999999989" as="sourcePoint" />
            <mxPoint x="-58.75" y="-75.87" as="targetPoint" />
          </mxGeometry>
        </mxCell>
        <mxCell id="edTjm4dISCqz6r1TiSTo-88" value="confrontar" style="shape=rhombus;perimeter=rhombusPerimeter;whiteSpace=wrap;html=1;align=center;" parent="1" vertex="1">
          <mxGeometry x="-1176" y="1031" width="120" height="60" as="geometry" />
        </mxCell>
        <mxCell id="edTjm4dISCqz6r1TiSTo-89" value="" style="endArrow=none;html=1;rounded=0;exitX=0.005;exitY=0.61;exitDx=0;exitDy=0;entryX=0.5;entryY=0;entryDx=0;entryDy=0;exitPerimeter=0;" parent="1" target="edTjm4dISCqz6r1TiSTo-88" edge="1">
          <mxGeometry relative="1" as="geometry">
            <mxPoint x="-995.4000000000001" y="1062.4" as="sourcePoint" />
            <mxPoint x="544" y="-140" as="targetPoint" />
          </mxGeometry>
        </mxCell>
        <mxCell id="edTjm4dISCqz6r1TiSTo-90" value="" style="endArrow=none;html=1;rounded=0;exitX=-0.002;exitY=0.595;exitDx=0;exitDy=0;entryX=0.5;entryY=1;entryDx=0;entryDy=0;exitPerimeter=0;" parent="1" target="edTjm4dISCqz6r1TiSTo-88" edge="1">
          <mxGeometry relative="1" as="geometry">
            <mxPoint x="-996.2399999999998" y="1061.8000000000002" as="sourcePoint" />
            <mxPoint x="534" y="-160" as="targetPoint" />
          </mxGeometry>
        </mxCell>
        <mxCell id="94cfyis6TtCI4MxM053h-14" style="edgeStyle=none;curved=1;rounded=0;orthogonalLoop=1;jettySize=auto;html=1;exitX=0.5;exitY=0;exitDx=0;exitDy=0;fontSize=12;startSize=8;endSize=8;" parent="1" edge="1">
          <mxGeometry relative="1" as="geometry">
            <mxPoint x="1346.5" y="380" as="sourcePoint" />
            <mxPoint x="1346.5" y="380" as="targetPoint" />
          </mxGeometry>
        </mxCell>
        <mxCell id="zVHzj3ecezakpNuDU_De-6" value="ataca" style="shape=rhombus;perimeter=rhombusPerimeter;whiteSpace=wrap;html=1;align=center;" parent="1" vertex="1">
          <mxGeometry x="-300" y="223.75" width="120" height="60" as="geometry" />
        </mxCell>
        <mxCell id="zVHzj3ecezakpNuDU_De-7" value="" style="endArrow=none;html=1;rounded=0;exitX=0.5;exitY=1;exitDx=0;exitDy=0;entryX=0.5;entryY=0;entryDx=0;entryDy=0;" parent="1" source="y91Bqe_7xXxEDmseq83t-1" target="zVHzj3ecezakpNuDU_De-6" edge="1">
          <mxGeometry relative="1" as="geometry">
            <mxPoint x="-220" y="120" as="sourcePoint" />
            <mxPoint x="-250" y="160" as="targetPoint" />
          </mxGeometry>
        </mxCell>
        <mxCell id="zVHzj3ecezakpNuDU_De-9" value="" style="triangle;whiteSpace=wrap;html=1;direction=north;" parent="1" vertex="1">
          <mxGeometry x="-175.24999999999977" y="-12.750000000000004" width="27.5" height="27.5" as="geometry" />
        </mxCell>
        <mxCell id="y91Bqe_7xXxEDmseq83t-1" value="Hostil" style="whiteSpace=wrap;html=1;" parent="1" vertex="1">
          <mxGeometry x="-280" y="41" width="80" height="40" as="geometry" />
        </mxCell>
        <mxCell id="y91Bqe_7xXxEDmseq83t-2" value="Amigável" style="whiteSpace=wrap;html=1;" parent="1" vertex="1">
          <mxGeometry x="-118.75" y="40" width="80" height="40" as="geometry" />
        </mxCell>
        <mxCell id="y91Bqe_7xXxEDmseq83t-3" value="" style="endArrow=none;html=1;rounded=0;exitX=1;exitY=0.5;exitDx=0;exitDy=0;entryX=0;entryY=0.25;entryDx=0;entryDy=0;" parent="1" source="y91Bqe_7xXxEDmseq83t-1" target="zVHzj3ecezakpNuDU_De-9" edge="1">
          <mxGeometry relative="1" as="geometry">
            <mxPoint x="-210" as="sourcePoint" />
            <mxPoint x="-50" as="targetPoint" />
            <Array as="points">
              <mxPoint x="-168" y="61" />
            </Array>
          </mxGeometry>
        </mxCell>
        <mxCell id="y91Bqe_7xXxEDmseq83t-4" value="" style="endArrow=none;html=1;rounded=0;exitX=0.002;exitY=0.622;exitDx=0;exitDy=0;exitPerimeter=0;entryX=0;entryY=0.5;entryDx=0;entryDy=0;" parent="1" source="zVHzj3ecezakpNuDU_De-9" target="y91Bqe_7xXxEDmseq83t-2" edge="1">
          <mxGeometry relative="1" as="geometry">
            <mxPoint x="-60" y="-10" as="sourcePoint" />
            <mxPoint x="100" y="-10" as="targetPoint" />
            <Array as="points">
              <mxPoint x="-158" y="60" />
            </Array>
          </mxGeometry>
        </mxCell>
        <mxCell id="y91Bqe_7xXxEDmseq83t-41" value="(T, E)" style="text;html=1;align=center;verticalAlign=middle;whiteSpace=wrap;rounded=0;" parent="1" vertex="1">
          <mxGeometry x="-166" y="-14.75" width="60" height="30" as="geometry" />
        </mxCell>
        <mxCell id="y91Bqe_7xXxEDmseq83t-42" value="doma" style="shape=rhombus;perimeter=rhombusPerimeter;whiteSpace=wrap;html=1;align=center;" parent="1" vertex="1">
          <mxGeometry x="-138.75" y="223.75" width="120" height="60" as="geometry" />
        </mxCell>
        <mxCell id="y91Bqe_7xXxEDmseq83t-43" value="" style="endArrow=none;html=1;rounded=0;entryX=0.5;entryY=0;entryDx=0;entryDy=0;exitX=0.195;exitY=0.987;exitDx=0;exitDy=0;exitPerimeter=0;" parent="1" source="y91Bqe_7xXxEDmseq83t-78" target="y91Bqe_7xXxEDmseq83t-42" edge="1">
          <mxGeometry relative="1" as="geometry">
            <mxPoint x="140" y="-10" as="sourcePoint" />
            <mxPoint x="10" y="140" as="targetPoint" />
            <Array as="points">
              <mxPoint x="130" />
              <mxPoint x="60" />
              <mxPoint x="60" y="120" />
              <mxPoint x="-80" y="120" />
            </Array>
          </mxGeometry>
        </mxCell>
        <mxCell id="y91Bqe_7xXxEDmseq83t-46" value="Ataque" style="whiteSpace=wrap;html=1;" parent="1" vertex="1">
          <mxGeometry x="-640" y="40" width="80" height="40" as="geometry" />
        </mxCell>
        <mxCell id="y91Bqe_7xXxEDmseq83t-47" value="possui" style="shape=rhombus;perimeter=rhombusPerimeter;whiteSpace=wrap;html=1;align=center;" parent="1" vertex="1">
          <mxGeometry x="-485" y="30" width="120" height="60" as="geometry" />
        </mxCell>
        <mxCell id="y91Bqe_7xXxEDmseq83t-50" value="" style="endArrow=none;html=1;rounded=0;exitX=1;exitY=0.5;exitDx=0;exitDy=0;entryX=0;entryY=0.5;entryDx=0;entryDy=0;" parent="1" source="y91Bqe_7xXxEDmseq83t-47" target="y91Bqe_7xXxEDmseq83t-1" edge="1">
          <mxGeometry relative="1" as="geometry">
            <mxPoint x="-510" y="-60" as="sourcePoint" />
            <mxPoint x="-350" y="-60" as="targetPoint" />
          </mxGeometry>
        </mxCell>
        <mxCell id="y91Bqe_7xXxEDmseq83t-52" value="" style="endArrow=none;html=1;rounded=0;exitX=1;exitY=0.5;exitDx=0;exitDy=0;entryX=-0.023;entryY=0.496;entryDx=0;entryDy=0;entryPerimeter=0;" parent="1" source="y91Bqe_7xXxEDmseq83t-46" target="y91Bqe_7xXxEDmseq83t-47" edge="1">
          <mxGeometry relative="1" as="geometry">
            <mxPoint x="-550" y="-30" as="sourcePoint" />
            <mxPoint x="-390" y="-30" as="targetPoint" />
          </mxGeometry>
        </mxCell>
        <mxCell id="y91Bqe_7xXxEDmseq83t-78" value="Instância de Animal" style="shape=ext;margin=3;double=1;whiteSpace=wrap;html=1;align=center;" parent="1" vertex="1">
          <mxGeometry x="110" y="-79.91000000000001" width="100" height="40" as="geometry" />
        </mxCell>
        <mxCell id="y91Bqe_7xXxEDmseq83t-79" value="possui" style="shape=rhombus;double=1;perimeter=rhombusPerimeter;whiteSpace=wrap;html=1;align=center;" parent="1" vertex="1">
          <mxGeometry x="-64.75" y="-89.91" width="120" height="60" as="geometry" />
        </mxCell>
        <mxCell id="y91Bqe_7xXxEDmseq83t-81" value="" style="endArrow=none;html=1;rounded=0;exitX=1;exitY=0.5;exitDx=0;exitDy=0;entryX=0;entryY=0.5;entryDx=0;entryDy=0;" parent="1" source="MHSS6djbWjyrjED063CA-14" target="y91Bqe_7xXxEDmseq83t-79" edge="1">
          <mxGeometry relative="1" as="geometry">
            <mxPoint x="90" y="-130" as="sourcePoint" />
            <mxPoint x="250" y="-130" as="targetPoint" />
          </mxGeometry>
        </mxCell>
        <mxCell id="y91Bqe_7xXxEDmseq83t-83" value="" style="shape=link;html=1;rounded=0;exitX=1;exitY=0.5;exitDx=0;exitDy=0;entryX=0;entryY=0.5;entryDx=0;entryDy=0;" parent="1" source="y91Bqe_7xXxEDmseq83t-79" target="y91Bqe_7xXxEDmseq83t-78" edge="1">
          <mxGeometry relative="1" as="geometry">
            <mxPoint x="150" y="-130" as="sourcePoint" />
            <mxPoint x="310" y="-130" as="targetPoint" />
          </mxGeometry>
        </mxCell>
        <mxCell id="y91Bqe_7xXxEDmseq83t-95" value="Sala" style="whiteSpace=wrap;html=1;align=center;" parent="1" vertex="1">
          <mxGeometry x="124" y="267" width="80" height="45" as="geometry" />
        </mxCell>
        <mxCell id="y91Bqe_7xXxEDmseq83t-96" value="abriga" style="shape=rhombus;perimeter=rhombusPerimeter;whiteSpace=wrap;html=1;align=center;" parent="1" vertex="1">
          <mxGeometry x="110" y="71.25" width="120" height="60" as="geometry" />
        </mxCell>
        <mxCell id="y91Bqe_7xXxEDmseq83t-98" value="abriga" style="shape=rhombus;perimeter=rhombusPerimeter;whiteSpace=wrap;html=1;align=center;" parent="1" vertex="1">
          <mxGeometry x="-31.51" y="356.74" width="120" height="60" as="geometry" />
        </mxCell>
        <mxCell id="y91Bqe_7xXxEDmseq83t-100" value="" style="endArrow=none;html=1;rounded=0;exitX=0.5;exitY=0;exitDx=0;exitDy=0;entryX=0.593;entryY=0.991;entryDx=0;entryDy=0;entryPerimeter=0;" parent="1" source="y91Bqe_7xXxEDmseq83t-96" target="y91Bqe_7xXxEDmseq83t-78" edge="1">
          <mxGeometry relative="1" as="geometry">
            <mxPoint x="-20" y="160" as="sourcePoint" />
            <mxPoint x="140" y="160" as="targetPoint" />
          </mxGeometry>
        </mxCell>
        <mxCell id="y91Bqe_7xXxEDmseq83t-102" value="" style="endArrow=none;html=1;rounded=0;exitX=0.5;exitY=1;exitDx=0;exitDy=0;entryX=0.57;entryY=-0.007;entryDx=0;entryDy=0;entryPerimeter=0;" parent="1" source="y91Bqe_7xXxEDmseq83t-96" target="y91Bqe_7xXxEDmseq83t-95" edge="1">
          <mxGeometry relative="1" as="geometry">
            <mxPoint x="80" y="120" as="sourcePoint" />
            <mxPoint x="240" y="120" as="targetPoint" />
          </mxGeometry>
        </mxCell>
        <mxCell id="y91Bqe_7xXxEDmseq83t-97" value="abriga" style="shape=rhombus;perimeter=rhombusPerimeter;whiteSpace=wrap;html=1;align=center;" parent="1" vertex="1">
          <mxGeometry x="204" y="393" width="120" height="60" as="geometry" />
        </mxCell>
        <mxCell id="y91Bqe_7xXxEDmseq83t-105" value="Instância de NPC" style="shape=ext;margin=3;double=1;whiteSpace=wrap;html=1;align=center;" parent="1" vertex="1">
          <mxGeometry x="214" y="486.88" width="100" height="40" as="geometry" />
        </mxCell>
        <mxCell id="y91Bqe_7xXxEDmseq83t-106" value="" style="endArrow=none;html=1;rounded=0;entryX=0.074;entryY=1;entryDx=0;entryDy=0;exitX=0.5;exitY=0;exitDx=0;exitDy=0;entryPerimeter=0;" parent="1" source="y91Bqe_7xXxEDmseq83t-98" target="y91Bqe_7xXxEDmseq83t-95" edge="1">
          <mxGeometry relative="1" as="geometry">
            <mxPoint x="50" y="260" as="sourcePoint" />
            <mxPoint x="210" y="260" as="targetPoint" />
            <Array as="points">
              <mxPoint x="28" y="320" />
              <mxPoint x="130" y="320" />
            </Array>
          </mxGeometry>
        </mxCell>
        <mxCell id="y91Bqe_7xXxEDmseq83t-109" value="" style="endArrow=none;html=1;rounded=0;exitX=0.5;exitY=0;exitDx=0;exitDy=0;entryX=0.611;entryY=0.998;entryDx=0;entryDy=0;entryPerimeter=0;" parent="1" source="y91Bqe_7xXxEDmseq83t-97" target="y91Bqe_7xXxEDmseq83t-95" edge="1">
          <mxGeometry relative="1" as="geometry">
            <mxPoint x="150" y="340" as="sourcePoint" />
            <mxPoint x="240" y="260" as="targetPoint" />
            <Array as="points">
              <mxPoint x="264" y="350" />
              <mxPoint x="173" y="350" />
            </Array>
          </mxGeometry>
        </mxCell>
        <mxCell id="y91Bqe_7xXxEDmseq83t-111" value="" style="endArrow=none;html=1;rounded=0;exitX=0.5;exitY=1;exitDx=0;exitDy=0;entryX=0.5;entryY=0;entryDx=0;entryDy=0;" parent="1" source="y91Bqe_7xXxEDmseq83t-97" target="y91Bqe_7xXxEDmseq83t-105" edge="1">
          <mxGeometry relative="1" as="geometry">
            <mxPoint x="100" y="460" as="sourcePoint" />
            <mxPoint x="260" y="460" as="targetPoint" />
          </mxGeometry>
        </mxCell>
        <mxCell id="y91Bqe_7xXxEDmseq83t-113" value="" style="endArrow=none;html=1;rounded=0;exitX=0.5;exitY=1;exitDx=0;exitDy=0;entryX=0.186;entryY=-0.018;entryDx=0;entryDy=0;entryPerimeter=0;" parent="1" source="y91Bqe_7xXxEDmseq83t-98" target="edTjm4dISCqz6r1TiSTo-55" edge="1">
          <mxGeometry relative="1" as="geometry">
            <mxPoint x="80" y="470" as="sourcePoint" />
            <mxPoint x="240" y="470" as="targetPoint" />
          </mxGeometry>
        </mxCell>
        <mxCell id="y91Bqe_7xXxEDmseq83t-115" value="" style="endArrow=none;html=1;rounded=0;exitX=0.5;exitY=1;exitDx=0;exitDy=0;entryX=0.003;entryY=0.074;entryDx=0;entryDy=0;entryPerimeter=0;" parent="1" source="y91Bqe_7xXxEDmseq83t-42" target="edTjm4dISCqz6r1TiSTo-55" edge="1">
          <mxGeometry relative="1" as="geometry">
            <mxPoint x="-170" y="400" as="sourcePoint" />
            <mxPoint x="-10" y="400" as="targetPoint" />
            <Array as="points">
              <mxPoint x="-79" y="490" />
            </Array>
          </mxGeometry>
        </mxCell>
        <mxCell id="y91Bqe_7xXxEDmseq83t-116" value="" style="endArrow=none;html=1;rounded=0;exitX=0.5;exitY=1;exitDx=0;exitDy=0;entryX=0.003;entryY=0.145;entryDx=0;entryDy=0;entryPerimeter=0;" parent="1" source="zVHzj3ecezakpNuDU_De-6" target="edTjm4dISCqz6r1TiSTo-55" edge="1">
          <mxGeometry relative="1" as="geometry">
            <mxPoint x="-320" y="440" as="sourcePoint" />
            <mxPoint x="-160" y="440" as="targetPoint" />
            <Array as="points">
              <mxPoint x="-240" y="493" />
            </Array>
          </mxGeometry>
        </mxCell>
        <mxCell id="y91Bqe_7xXxEDmseq83t-117" value="possui" style="shape=rhombus;double=1;perimeter=rhombusPerimeter;whiteSpace=wrap;html=1;align=center;" parent="1" vertex="1">
          <mxGeometry x="204" y="635.88" width="120" height="60" as="geometry" />
        </mxCell>
        <mxCell id="y91Bqe_7xXxEDmseq83t-119" value="" style="endArrow=none;html=1;rounded=0;exitX=0.5;exitY=1;exitDx=0;exitDy=0;entryX=0.5;entryY=0;entryDx=0;entryDy=0;" parent="1" source="y91Bqe_7xXxEDmseq83t-117" target="edTjm4dISCqz6r1TiSTo-56" edge="1">
          <mxGeometry relative="1" as="geometry">
            <mxPoint x="310" y="670" as="sourcePoint" />
            <mxPoint x="470" y="670" as="targetPoint" />
          </mxGeometry>
        </mxCell>
        <mxCell id="y91Bqe_7xXxEDmseq83t-121" value="" style="shape=link;html=1;rounded=0;exitX=0.5;exitY=0;exitDx=0;exitDy=0;entryX=0.5;entryY=1;entryDx=0;entryDy=0;" parent="1" source="y91Bqe_7xXxEDmseq83t-117" target="y91Bqe_7xXxEDmseq83t-105" edge="1">
          <mxGeometry relative="1" as="geometry">
            <mxPoint x="430" y="670" as="sourcePoint" />
            <mxPoint x="590" y="670" as="targetPoint" />
          </mxGeometry>
        </mxCell>
        <mxCell id="y91Bqe_7xXxEDmseq83t-123" value="acessa" style="shape=rhombus;perimeter=rhombusPerimeter;whiteSpace=wrap;html=1;align=center;" parent="1" vertex="1">
          <mxGeometry x="75" y="390" width="120" height="60" as="geometry" />
        </mxCell>
        <mxCell id="y91Bqe_7xXxEDmseq83t-127" value="" style="endArrow=none;html=1;rounded=0;exitX=1;exitY=0.5;exitDx=0;exitDy=0;entryX=0.5;entryY=1;entryDx=0;entryDy=0;" parent="1" source="edTjm4dISCqz6r1TiSTo-55" target="y91Bqe_7xXxEDmseq83t-123" edge="1">
          <mxGeometry relative="1" as="geometry">
            <mxPoint x="130" y="440" as="sourcePoint" />
            <mxPoint x="290" y="440" as="targetPoint" />
            <Array as="points">
              <mxPoint x="135" y="507" />
            </Array>
          </mxGeometry>
        </mxCell>
        <mxCell id="y91Bqe_7xXxEDmseq83t-128" value="" style="endArrow=none;html=1;rounded=0;exitX=0.134;exitY=0.995;exitDx=0;exitDy=0;entryX=0.5;entryY=0;entryDx=0;entryDy=0;exitPerimeter=0;" parent="1" source="y91Bqe_7xXxEDmseq83t-95" target="y91Bqe_7xXxEDmseq83t-123" edge="1">
          <mxGeometry relative="1" as="geometry">
            <mxPoint x="200" y="340" as="sourcePoint" />
            <mxPoint x="360" y="340" as="targetPoint" />
          </mxGeometry>
        </mxCell>
        <mxCell id="y91Bqe_7xXxEDmseq83t-129" value="Personagem" style="whiteSpace=wrap;html=1;align=center;" parent="1" vertex="1">
          <mxGeometry x="33.25" y="1138" width="100" height="40" as="geometry" />
        </mxCell>
        <mxCell id="y91Bqe_7xXxEDmseq83t-130" value="" style="triangle;whiteSpace=wrap;html=1;direction=north;rotation=-180;" parent="1" vertex="1">
          <mxGeometry x="68.75000000000023" y="1065.2" width="27.5" height="27.5" as="geometry" />
        </mxCell>
        <mxCell id="y91Bqe_7xXxEDmseq83t-131" value="" style="endArrow=none;html=1;rounded=0;exitX=0.5;exitY=0;exitDx=0;exitDy=0;entryX=1;entryY=0.5;entryDx=0;entryDy=0;" parent="1" source="y91Bqe_7xXxEDmseq83t-129" target="y91Bqe_7xXxEDmseq83t-130" edge="1">
          <mxGeometry relative="1" as="geometry">
            <mxPoint x="-78.90000000000009" y="923.3499999999999" as="sourcePoint" />
            <mxPoint x="84.41750000000002" y="851.4149999999995" as="targetPoint" />
            <Array as="points" />
          </mxGeometry>
        </mxCell>
        <mxCell id="y91Bqe_7xXxEDmseq83t-132" value="" style="endArrow=none;html=1;rounded=0;exitX=0.683;exitY=1.017;exitDx=0;exitDy=0;exitPerimeter=0;entryX=0.009;entryY=0.591;entryDx=0;entryDy=0;entryPerimeter=0;" parent="1" source="edTjm4dISCqz6r1TiSTo-55" target="y91Bqe_7xXxEDmseq83t-130" edge="1">
          <mxGeometry relative="1" as="geometry">
            <mxPoint x="70" y="620" as="sourcePoint" />
            <mxPoint x="80" y="820" as="targetPoint" />
            <Array as="points">
              <mxPoint x="80" y="810" />
            </Array>
          </mxGeometry>
        </mxCell>
        <mxCell id="y91Bqe_7xXxEDmseq83t-134" value="(T, E)" style="text;strokeColor=none;fillColor=none;spacingLeft=4;spacingRight=4;overflow=hidden;rotatable=0;points=[[0,0.5],[1,0.5]];portConstraint=eastwest;fontSize=12;whiteSpace=wrap;html=1;" parent="1" vertex="1">
          <mxGeometry x="94.25" y="1071.5" width="40" height="30" as="geometry" />
        </mxCell>
        <mxCell id="y91Bqe_7xXxEDmseq83t-135" value="possui" style="shape=rhombus;perimeter=rhombusPerimeter;whiteSpace=wrap;html=1;align=center;" parent="1" vertex="1">
          <mxGeometry x="-309" y="880.7" width="120" height="60" as="geometry" />
        </mxCell>
        <mxCell id="y91Bqe_7xXxEDmseq83t-140" value="contém" style="shape=rhombus;perimeter=rhombusPerimeter;whiteSpace=wrap;html=1;align=center;" parent="1" vertex="1">
          <mxGeometry x="-697.75" y="511.88" width="116.25" height="60" as="geometry" />
        </mxCell>
        <mxCell id="y91Bqe_7xXxEDmseq83t-141" value="Item" style="whiteSpace=wrap;html=1;" parent="1" vertex="1">
          <mxGeometry x="-730" y="293" width="90" height="42" as="geometry" />
        </mxCell>
        <mxCell id="y91Bqe_7xXxEDmseq83t-142" value="Instância de Item" style="shape=ext;margin=3;double=1;whiteSpace=wrap;html=1;align=center;" parent="1" vertex="1">
          <mxGeometry x="-570" y="420.25" width="120" height="40" as="geometry" />
        </mxCell>
        <mxCell id="y91Bqe_7xXxEDmseq83t-144" value="" style="endArrow=none;html=1;rounded=0;exitX=0.5;exitY=0;exitDx=0;exitDy=0;entryX=0;entryY=0.5;entryDx=0;entryDy=0;" parent="1" source="y91Bqe_7xXxEDmseq83t-140" target="y91Bqe_7xXxEDmseq83t-142" edge="1">
          <mxGeometry relative="1" as="geometry">
            <mxPoint x="-470" y="610" as="sourcePoint" />
            <mxPoint x="-310" y="610" as="targetPoint" />
            <Array as="points">
              <mxPoint x="-640" y="440" />
            </Array>
          </mxGeometry>
        </mxCell>
        <mxCell id="y91Bqe_7xXxEDmseq83t-146" value="" style="endArrow=none;html=1;rounded=0;exitX=0.5;exitY=1;exitDx=0;exitDy=0;entryX=0.175;entryY=-0.019;entryDx=0;entryDy=0;entryPerimeter=0;" parent="1" source="y91Bqe_7xXxEDmseq83t-140" target="GcbjipwZdxQqbnMk5Tjc-1" edge="1">
          <mxGeometry relative="1" as="geometry">
            <mxPoint x="-460" y="620" as="sourcePoint" />
            <mxPoint x="-639.6399999999999" y="923.8299999999999" as="targetPoint" />
          </mxGeometry>
        </mxCell>
        <mxCell id="y91Bqe_7xXxEDmseq83t-148" value="contém" style="shape=rhombus;perimeter=rhombusPerimeter;whiteSpace=wrap;html=1;align=center;" parent="1" vertex="1">
          <mxGeometry x="-568.12" y="283.75" width="116.25" height="60" as="geometry" />
        </mxCell>
        <mxCell id="y91Bqe_7xXxEDmseq83t-149" value="" style="endArrow=none;html=1;rounded=0;exitX=0.5;exitY=1;exitDx=0;exitDy=0;entryX=0.5;entryY=0;entryDx=0;entryDy=0;" parent="1" source="y91Bqe_7xXxEDmseq83t-148" target="y91Bqe_7xXxEDmseq83t-142" edge="1">
          <mxGeometry relative="1" as="geometry">
            <mxPoint x="-430" y="380" as="sourcePoint" />
            <mxPoint x="-270" y="380" as="targetPoint" />
          </mxGeometry>
        </mxCell>
        <mxCell id="y91Bqe_7xXxEDmseq83t-151" value="" style="endArrow=none;html=1;rounded=0;exitX=0;exitY=0.5;exitDx=0;exitDy=0;entryX=1;entryY=0.5;entryDx=0;entryDy=0;" parent="1" source="y91Bqe_7xXxEDmseq83t-148" target="y91Bqe_7xXxEDmseq83t-141" edge="1">
          <mxGeometry relative="1" as="geometry">
            <mxPoint x="-520" y="260" as="sourcePoint" />
            <mxPoint x="-360" y="260" as="targetPoint" />
          </mxGeometry>
        </mxCell>
        <mxCell id="y91Bqe_7xXxEDmseq83t-169" value="coleta" style="shape=rhombus;perimeter=rhombusPerimeter;whiteSpace=wrap;html=1;align=center;" parent="1" vertex="1">
          <mxGeometry x="-451.87" y="540" width="116.25" height="60" as="geometry" />
        </mxCell>
        <mxCell id="y91Bqe_7xXxEDmseq83t-170" value="" style="endArrow=none;html=1;rounded=0;exitX=0;exitY=0.5;exitDx=0;exitDy=0;entryX=0.863;entryY=1.039;entryDx=0;entryDy=0;entryPerimeter=0;" parent="1" source="y91Bqe_7xXxEDmseq83t-169" target="y91Bqe_7xXxEDmseq83t-142" edge="1">
          <mxGeometry relative="1" as="geometry">
            <mxPoint x="-500" y="537" as="sourcePoint" />
            <mxPoint x="-500" y="470" as="targetPoint" />
            <Array as="points">
              <mxPoint x="-466" y="570" />
            </Array>
          </mxGeometry>
        </mxCell>
        <mxCell id="y91Bqe_7xXxEDmseq83t-172" value="" style="endArrow=none;html=1;rounded=0;entryX=1;entryY=0.5;entryDx=0;entryDy=0;exitX=0;exitY=0.5;exitDx=0;exitDy=0;" parent="1" source="edTjm4dISCqz6r1TiSTo-55" target="y91Bqe_7xXxEDmseq83t-169" edge="1">
          <mxGeometry relative="1" as="geometry">
            <mxPoint x="-160" y="924" as="sourcePoint" />
            <mxPoint x="-503.7399999999998" y="889" as="targetPoint" />
            <Array as="points">
              <mxPoint x="-336" y="510" />
            </Array>
          </mxGeometry>
        </mxCell>
        <mxCell id="y91Bqe_7xXxEDmseq83t-174" value="" style="endArrow=none;html=1;rounded=0;entryX=0;entryY=0.75;entryDx=0;entryDy=0;exitX=1;exitY=0.5;exitDx=0;exitDy=0;" parent="1" source="edTjm4dISCqz6r1TiSTo-26" target="edTjm4dISCqz6r1TiSTo-55" edge="1">
          <mxGeometry relative="1" as="geometry">
            <mxPoint x="-380" y="1050" as="sourcePoint" />
            <mxPoint x="-190" y="840" as="targetPoint" />
            <Array as="points">
              <mxPoint x="-180" y="1060" />
              <mxPoint x="-180" y="517" />
            </Array>
          </mxGeometry>
        </mxCell>
        <mxCell id="y91Bqe_7xXxEDmseq83t-277" value="&lt;font style=&quot;font-size: 10px;&quot;&gt;Contém&lt;/font&gt;" style="shape=rhombus;perimeter=rhombusPerimeter;whiteSpace=wrap;html=1;align=center;" parent="1" vertex="1">
          <mxGeometry x="636" y="-17.999999999999996" width="77.5" height="50" as="geometry" />
        </mxCell>
        <mxCell id="y91Bqe_7xXxEDmseq83t-278" value="Mapa" style="whiteSpace=wrap;html=1;align=center;" parent="1" vertex="1">
          <mxGeometry x="633.5" y="-150" width="80" height="45" as="geometry" />
        </mxCell>
        <mxCell id="y91Bqe_7xXxEDmseq83t-280" value="conecta" style="shape=rhombus;perimeter=rhombusPerimeter;whiteSpace=wrap;html=1;align=center;" parent="1" vertex="1">
          <mxGeometry x="300" y="259.5" width="120" height="60" as="geometry" />
        </mxCell>
        <mxCell id="y91Bqe_7xXxEDmseq83t-281" value="" style="endArrow=none;html=1;rounded=0;entryX=0.5;entryY=0;entryDx=0;entryDy=0;exitX=1;exitY=0.5;exitDx=0;exitDy=0;" parent="1" source="y91Bqe_7xXxEDmseq83t-95" target="y91Bqe_7xXxEDmseq83t-280" edge="1">
          <mxGeometry relative="1" as="geometry">
            <mxPoint x="204" y="278" as="sourcePoint" />
            <mxPoint x="480" y="220" as="targetPoint" />
          </mxGeometry>
        </mxCell>
        <mxCell id="y91Bqe_7xXxEDmseq83t-282" value="" style="endArrow=none;html=1;rounded=0;exitX=1;exitY=0.5;exitDx=0;exitDy=0;entryX=0.5;entryY=1;entryDx=0;entryDy=0;" parent="1" source="y91Bqe_7xXxEDmseq83t-95" target="y91Bqe_7xXxEDmseq83t-280" edge="1">
          <mxGeometry relative="1" as="geometry">
            <mxPoint x="214" y="288" as="sourcePoint" />
            <mxPoint x="320" y="270" as="targetPoint" />
          </mxGeometry>
        </mxCell>
        <mxCell id="y91Bqe_7xXxEDmseq83t-283" value="abriga" style="shape=rhombus;perimeter=rhombusPerimeter;whiteSpace=wrap;html=1;align=center;" parent="1" vertex="1">
          <mxGeometry x="365" y="310" width="120" height="60" as="geometry" />
        </mxCell>
        <mxCell id="y91Bqe_7xXxEDmseq83t-285" value="" style="endArrow=none;html=1;rounded=0;exitX=0.835;exitY=0.991;exitDx=0;exitDy=0;exitPerimeter=0;entryX=0;entryY=0.5;entryDx=0;entryDy=0;" parent="1" source="y91Bqe_7xXxEDmseq83t-95" target="y91Bqe_7xXxEDmseq83t-283" edge="1">
          <mxGeometry relative="1" as="geometry">
            <mxPoint x="350" y="340" as="sourcePoint" />
            <mxPoint x="510" y="340" as="targetPoint" />
            <Array as="points">
              <mxPoint x="191" y="340" />
            </Array>
          </mxGeometry>
        </mxCell>
        <mxCell id="y91Bqe_7xXxEDmseq83t-287" value="Estabelecimento" style="whiteSpace=wrap;html=1;align=center;" parent="1" vertex="1">
          <mxGeometry x="900" y="248.87999999999988" width="100" height="40" as="geometry" />
        </mxCell>
        <mxCell id="y91Bqe_7xXxEDmseq83t-288" value="Instância de Estabelecimento" style="shape=ext;margin=3;double=1;whiteSpace=wrap;html=1;align=center;" parent="1" vertex="1">
          <mxGeometry x="549" y="248.88" width="100" height="40" as="geometry" />
        </mxCell>
        <mxCell id="y91Bqe_7xXxEDmseq83t-289" value="possui" style="shape=rhombus;double=1;perimeter=rhombusPerimeter;whiteSpace=wrap;html=1;align=center;" parent="1" vertex="1">
          <mxGeometry x="730" y="238.88" width="120" height="60" as="geometry" />
        </mxCell>
        <mxCell id="y91Bqe_7xXxEDmseq83t-290" value="" style="endArrow=none;html=1;rounded=0;exitX=1;exitY=0.5;exitDx=0;exitDy=0;entryX=0;entryY=0.5;entryDx=0;entryDy=0;" parent="1" source="y91Bqe_7xXxEDmseq83t-289" target="y91Bqe_7xXxEDmseq83t-287" edge="1">
          <mxGeometry relative="1" as="geometry">
            <mxPoint x="460" y="671" as="sourcePoint" />
            <mxPoint x="620" y="671" as="targetPoint" />
          </mxGeometry>
        </mxCell>
        <mxCell id="y91Bqe_7xXxEDmseq83t-292" value="" style="shape=link;html=1;rounded=0;exitX=0;exitY=0.5;exitDx=0;exitDy=0;entryX=1;entryY=0.5;entryDx=0;entryDy=0;" parent="1" source="y91Bqe_7xXxEDmseq83t-289" target="y91Bqe_7xXxEDmseq83t-288" edge="1">
          <mxGeometry relative="1" as="geometry">
            <mxPoint x="580" y="671" as="sourcePoint" />
            <mxPoint x="740" y="671" as="targetPoint" />
          </mxGeometry>
        </mxCell>
        <mxCell id="y91Bqe_7xXxEDmseq83t-294" value="" style="endArrow=none;html=1;rounded=0;exitX=0.5;exitY=0;exitDx=0;exitDy=0;entryX=-0.004;entryY=0.596;entryDx=0;entryDy=0;entryPerimeter=0;" parent="1" source="y91Bqe_7xXxEDmseq83t-283" target="y91Bqe_7xXxEDmseq83t-288" edge="1">
          <mxGeometry relative="1" as="geometry">
            <mxPoint x="274" y="420" as="sourcePoint" />
            <mxPoint x="540" y="180" as="targetPoint" />
            <Array as="points">
              <mxPoint x="425" y="273" />
            </Array>
          </mxGeometry>
        </mxCell>
        <mxCell id="y91Bqe_7xXxEDmseq83t-296" value="Consumível" style="whiteSpace=wrap;html=1;" parent="1" vertex="1">
          <mxGeometry x="-1158" y="300" width="90" height="39" as="geometry" />
        </mxCell>
        <mxCell id="y91Bqe_7xXxEDmseq83t-297" value="" style="triangle;whiteSpace=wrap;html=1;direction=north;rotation=90;" parent="1" vertex="1">
          <mxGeometry x="-877.9999999999998" y="300.25" width="27.5" height="27.5" as="geometry" />
        </mxCell>
        <mxCell id="y91Bqe_7xXxEDmseq83t-299" value="" style="endArrow=none;html=1;rounded=0;exitX=0.5;exitY=0;exitDx=0;exitDy=0;entryX=0.5;entryY=1;entryDx=0;entryDy=0;" parent="1" source="y91Bqe_7xXxEDmseq83t-277" target="y91Bqe_7xXxEDmseq83t-278" edge="1">
          <mxGeometry relative="1" as="geometry">
            <mxPoint x="666" y="-5.569999999999997" as="sourcePoint" />
            <mxPoint x="826" y="-5.569999999999997" as="targetPoint" />
          </mxGeometry>
        </mxCell>
        <mxCell id="y91Bqe_7xXxEDmseq83t-301" value="" style="endArrow=none;html=1;rounded=0;exitX=0.5;exitY=1;exitDx=0;exitDy=0;entryX=0.822;entryY=0.006;entryDx=0;entryDy=0;entryPerimeter=0;" parent="1" source="ygH41liseYAadWKIoqiI-16" target="y91Bqe_7xXxEDmseq83t-95" edge="1">
          <mxGeometry relative="1" as="geometry">
            <mxPoint x="280" y="180" as="sourcePoint" />
            <mxPoint x="190" y="270" as="targetPoint" />
            <Array as="points">
              <mxPoint x="476" y="230" />
              <mxPoint x="190" y="230" />
            </Array>
          </mxGeometry>
        </mxCell>
        <mxCell id="y91Bqe_7xXxEDmseq83t-303" value="Equipável" style="whiteSpace=wrap;html=1;" parent="1" vertex="1">
          <mxGeometry x="-1158" y="170.76" width="90" height="39" as="geometry" />
        </mxCell>
        <mxCell id="y91Bqe_7xXxEDmseq83t-304" value="" style="endArrow=none;html=1;rounded=0;exitX=0.996;exitY=0.627;exitDx=0;exitDy=0;entryX=0;entryY=0.187;entryDx=0;entryDy=0;entryPerimeter=0;exitPerimeter=0;" parent="1" source="y91Bqe_7xXxEDmseq83t-303" target="y91Bqe_7xXxEDmseq83t-297" edge="1">
          <mxGeometry relative="1" as="geometry">
            <mxPoint x="-1068" y="195.26" as="sourcePoint" />
            <mxPoint x="-878.1374999999997" y="305.19499999999994" as="targetPoint" />
            <Array as="points">
              <mxPoint x="-918" y="195" />
              <mxPoint x="-918" y="305" />
            </Array>
          </mxGeometry>
        </mxCell>
        <mxCell id="y91Bqe_7xXxEDmseq83t-305" value="" style="endArrow=none;html=1;rounded=0;entryX=0;entryY=0.5;entryDx=0;entryDy=0;exitX=1;exitY=0.5;exitDx=0;exitDy=0;" parent="1" source="y91Bqe_7xXxEDmseq83t-297" target="y91Bqe_7xXxEDmseq83t-141" edge="1">
          <mxGeometry relative="1" as="geometry">
            <mxPoint x="-610" y="180" as="sourcePoint" />
            <mxPoint x="-622.5" y="166.86" as="targetPoint" />
            <Array as="points" />
          </mxGeometry>
        </mxCell>
        <mxCell id="y91Bqe_7xXxEDmseq83t-306" value="" style="endArrow=none;html=1;rounded=0;entryX=-0.018;entryY=0.347;entryDx=0;entryDy=0;entryPerimeter=0;exitX=1;exitY=0.25;exitDx=0;exitDy=0;" parent="1" source="y91Bqe_7xXxEDmseq83t-296" target="y91Bqe_7xXxEDmseq83t-297" edge="1">
          <mxGeometry relative="1" as="geometry">
            <mxPoint x="-1098" y="333" as="sourcePoint" />
            <mxPoint x="-938" y="333" as="targetPoint" />
          </mxGeometry>
        </mxCell>
        <mxCell id="y91Bqe_7xXxEDmseq83t-307" value="(T, E)" style="text;strokeColor=none;fillColor=none;spacingLeft=4;spacingRight=4;overflow=hidden;rotatable=0;points=[[0,0.5],[1,0.5]];portConstraint=eastwest;fontSize=12;whiteSpace=wrap;html=1;" parent="1" vertex="1">
          <mxGeometry x="-864" y="281.75" width="40" height="30" as="geometry" />
        </mxCell>
        <mxCell id="y91Bqe_7xXxEDmseq83t-308" value="Diálogo" style="whiteSpace=wrap;html=1;align=center;" parent="1" vertex="1">
          <mxGeometry x="560" y="486.8799999999999" width="100" height="40" as="geometry" />
        </mxCell>
        <mxCell id="y91Bqe_7xXxEDmseq83t-309" value="fala" style="shape=rhombus;perimeter=rhombusPerimeter;whiteSpace=wrap;html=1;align=center;" parent="1" vertex="1">
          <mxGeometry x="385" y="476.88" width="120" height="60" as="geometry" />
        </mxCell>
        <mxCell id="y91Bqe_7xXxEDmseq83t-310" value="" style="endArrow=none;html=1;rounded=0;exitX=0.993;exitY=0.495;exitDx=0;exitDy=0;exitPerimeter=0;entryX=0;entryY=0.5;entryDx=0;entryDy=0;" parent="1" source="y91Bqe_7xXxEDmseq83t-309" target="y91Bqe_7xXxEDmseq83t-308" edge="1">
          <mxGeometry relative="1" as="geometry">
            <mxPoint x="610" y="570" as="sourcePoint" />
            <mxPoint x="770" y="570" as="targetPoint" />
          </mxGeometry>
        </mxCell>
        <mxCell id="y91Bqe_7xXxEDmseq83t-311" value="" style="endArrow=none;html=1;rounded=0;entryX=0;entryY=0.5;entryDx=0;entryDy=0;exitX=1;exitY=0.5;exitDx=0;exitDy=0;" parent="1" source="y91Bqe_7xXxEDmseq83t-105" target="y91Bqe_7xXxEDmseq83t-309" edge="1">
          <mxGeometry relative="1" as="geometry">
            <mxPoint x="350" y="510" as="sourcePoint" />
            <mxPoint x="620" y="450" as="targetPoint" />
            <Array as="points" />
          </mxGeometry>
        </mxCell>
        <mxCell id="y91Bqe_7xXxEDmseq83t-313" value="Missão" style="whiteSpace=wrap;html=1;align=center;" parent="1" vertex="1">
          <mxGeometry x="653" y="755.9999999999999" width="100" height="40" as="geometry" />
        </mxCell>
        <mxCell id="y91Bqe_7xXxEDmseq83t-315" value="cumpre" style="shape=rhombus;perimeter=rhombusPerimeter;whiteSpace=wrap;html=1;align=center;" parent="1" vertex="1">
          <mxGeometry x="474.51" y="745.75" width="120" height="60" as="geometry" />
        </mxCell>
        <mxCell id="y91Bqe_7xXxEDmseq83t-316" value="pré-requisito" style="shape=rhombus;perimeter=rhombusPerimeter;whiteSpace=wrap;html=1;align=center;" parent="1" vertex="1">
          <mxGeometry x="843" y="745.75" width="120" height="60" as="geometry" />
        </mxCell>
        <mxCell id="y91Bqe_7xXxEDmseq83t-317" value="" style="endArrow=none;html=1;rounded=0;exitX=1;exitY=0.5;exitDx=0;exitDy=0;entryX=0.5;entryY=0;entryDx=0;entryDy=0;" parent="1" source="y91Bqe_7xXxEDmseq83t-313" target="y91Bqe_7xXxEDmseq83t-316" edge="1">
          <mxGeometry relative="1" as="geometry">
            <mxPoint x="773" y="836" as="sourcePoint" />
            <mxPoint x="933" y="836" as="targetPoint" />
          </mxGeometry>
        </mxCell>
        <mxCell id="y91Bqe_7xXxEDmseq83t-318" value="" style="endArrow=none;html=1;rounded=0;entryX=0.5;entryY=1;entryDx=0;entryDy=0;exitX=1;exitY=0.5;exitDx=0;exitDy=0;" parent="1" source="y91Bqe_7xXxEDmseq83t-313" target="y91Bqe_7xXxEDmseq83t-316" edge="1">
          <mxGeometry relative="1" as="geometry">
            <mxPoint x="763" y="786" as="sourcePoint" />
            <mxPoint x="943" y="846" as="targetPoint" />
          </mxGeometry>
        </mxCell>
        <mxCell id="y91Bqe_7xXxEDmseq83t-319" value="" style="endArrow=none;html=1;rounded=0;exitX=1;exitY=0.5;exitDx=0;exitDy=0;entryX=0;entryY=0.5;entryDx=0;entryDy=0;" parent="1" source="y91Bqe_7xXxEDmseq83t-315" target="y91Bqe_7xXxEDmseq83t-313" edge="1">
          <mxGeometry relative="1" as="geometry">
            <mxPoint x="793" y="856" as="sourcePoint" />
            <mxPoint x="953" y="856" as="targetPoint" />
          </mxGeometry>
        </mxCell>
        <mxCell id="y91Bqe_7xXxEDmseq83t-320" value="" style="endArrow=none;html=1;rounded=0;exitX=0.772;exitY=1.012;exitDx=0;exitDy=0;entryX=0;entryY=0.5;entryDx=0;entryDy=0;exitPerimeter=0;jumpStyle=arc;" parent="1" source="edTjm4dISCqz6r1TiSTo-55" target="y91Bqe_7xXxEDmseq83t-315" edge="1">
          <mxGeometry relative="1" as="geometry">
            <mxPoint x="83" y="526.8800000000001" as="sourcePoint" />
            <mxPoint x="379.51" y="659.75" as="targetPoint" />
            <Array as="points">
              <mxPoint x="90" y="776" />
            </Array>
          </mxGeometry>
        </mxCell>
        <mxCell id="y91Bqe_7xXxEDmseq83t-321" value="conta" style="shape=rhombus;perimeter=rhombusPerimeter;whiteSpace=wrap;html=1;align=center;" parent="1" vertex="1">
          <mxGeometry x="643" y="833.5" width="120" height="60" as="geometry" />
        </mxCell>
        <mxCell id="y91Bqe_7xXxEDmseq83t-322" value="História" style="whiteSpace=wrap;html=1;align=center;" parent="1" vertex="1">
          <mxGeometry x="823" y="843.4999999999999" width="100" height="40" as="geometry" />
        </mxCell>
        <mxCell id="y91Bqe_7xXxEDmseq83t-326" value="" style="endArrow=none;html=1;rounded=0;exitX=1;exitY=0.5;exitDx=0;exitDy=0;entryX=0;entryY=0.5;entryDx=0;entryDy=0;" parent="1" source="y91Bqe_7xXxEDmseq83t-321" target="y91Bqe_7xXxEDmseq83t-322" edge="1">
          <mxGeometry relative="1" as="geometry">
            <mxPoint x="813" y="906" as="sourcePoint" />
            <mxPoint x="973" y="906" as="targetPoint" />
          </mxGeometry>
        </mxCell>
        <mxCell id="yl1Z2EMh4tdtqLIf2lp5-38" value="" style="endArrow=none;html=1;rounded=0;exitX=1;exitY=0.5;exitDx=0;exitDy=0;entryX=0;entryY=0.5;entryDx=0;entryDy=0;" parent="1" source="y91Bqe_7xXxEDmseq83t-308" target="VzG8-4p2IzFKK54a7V07-25" edge="1">
          <mxGeometry relative="1" as="geometry">
            <mxPoint x="650" y="430" as="sourcePoint" />
            <mxPoint x="730" y="506.8800000000001" as="targetPoint" />
          </mxGeometry>
        </mxCell>
        <mxCell id="yl1Z2EMh4tdtqLIf2lp5-40" value="" style="shape=link;html=1;rounded=0;exitX=1;exitY=0.5;exitDx=0;exitDy=0;entryX=0;entryY=0.5;entryDx=0;entryDy=0;" parent="1" source="VzG8-4p2IzFKK54a7V07-25" target="VzG8-4p2IzFKK54a7V07-26" edge="1">
          <mxGeometry relative="1" as="geometry">
            <mxPoint x="850" y="506.8800000000001" as="sourcePoint" />
            <mxPoint x="960" y="506.8799999999999" as="targetPoint" />
          </mxGeometry>
        </mxCell>
        <mxCell id="yl1Z2EMh4tdtqLIf2lp5-42" value="possui" style="shape=rhombus;perimeter=rhombusPerimeter;whiteSpace=wrap;html=1;align=center;" parent="1" vertex="1">
          <mxGeometry x="643" y="666" width="120" height="60" as="geometry" />
        </mxCell>
        <mxCell id="yl1Z2EMh4tdtqLIf2lp5-43" value="Objetivo" style="whiteSpace=wrap;html=1;align=center;" parent="1" vertex="1">
          <mxGeometry x="813" y="675.9999999999999" width="100" height="40" as="geometry" />
        </mxCell>
        <mxCell id="yl1Z2EMh4tdtqLIf2lp5-44" value="" style="endArrow=none;html=1;rounded=0;exitX=0.5;exitY=0;exitDx=0;exitDy=0;entryX=0.5;entryY=1;entryDx=0;entryDy=0;" parent="1" source="y91Bqe_7xXxEDmseq83t-313" target="yl1Z2EMh4tdtqLIf2lp5-42" edge="1">
          <mxGeometry relative="1" as="geometry">
            <mxPoint x="1023" y="806" as="sourcePoint" />
            <mxPoint x="1183" y="806" as="targetPoint" />
          </mxGeometry>
        </mxCell>
        <mxCell id="VzG8-4p2IzFKK54a7V07-25" value="é composto por" style="shape=rhombus;double=1;perimeter=rhombusPerimeter;whiteSpace=wrap;html=1;align=center;" parent="1" vertex="1">
          <mxGeometry x="730" y="476.88" width="120" height="60" as="geometry" />
        </mxCell>
        <mxCell id="VzG8-4p2IzFKK54a7V07-26" value="Linha de Fala" style="shape=ext;margin=3;double=1;whiteSpace=wrap;html=1;align=center;" parent="1" vertex="1">
          <mxGeometry x="960" y="486.88" width="100" height="40" as="geometry" />
        </mxCell>
        <mxCell id="VzG8-4p2IzFKK54a7V07-100" value="Classe" style="whiteSpace=wrap;html=1;align=center;" parent="1" vertex="1">
          <mxGeometry x="-365" y="1138" width="100" height="40" as="geometry" />
        </mxCell>
        <mxCell id="VzG8-4p2IzFKK54a7V07-101" value="Habilidade" style="whiteSpace=wrap;html=1;align=center;" parent="1" vertex="1">
          <mxGeometry x="-750" y="1138" width="100" height="40" as="geometry" />
        </mxCell>
        <mxCell id="VzG8-4p2IzFKK54a7V07-102" value="" style="endArrow=none;html=1;rounded=0;entryX=0;entryY=0.5;entryDx=0;entryDy=0;exitX=1;exitY=0.5;exitDx=0;exitDy=0;" parent="1" source="VzG8-4p2IzFKK54a7V07-103" target="y91Bqe_7xXxEDmseq83t-129" edge="1">
          <mxGeometry relative="1" as="geometry">
            <mxPoint x="-250" y="940" as="sourcePoint" />
            <mxPoint x="-90" y="940" as="targetPoint" />
          </mxGeometry>
        </mxCell>
        <mxCell id="VzG8-4p2IzFKK54a7V07-103" value="pertence à" style="shape=rhombus;perimeter=rhombusPerimeter;whiteSpace=wrap;html=1;align=center;" parent="1" vertex="1">
          <mxGeometry x="-194" y="1128" width="120" height="60" as="geometry" />
        </mxCell>
        <mxCell id="VzG8-4p2IzFKK54a7V07-104" value="possui" style="shape=rhombus;perimeter=rhombusPerimeter;whiteSpace=wrap;html=1;align=center;" parent="1" vertex="1">
          <mxGeometry x="-560" y="1128" width="120" height="60" as="geometry" />
        </mxCell>
        <mxCell id="VzG8-4p2IzFKK54a7V07-105" value="" style="endArrow=none;html=1;rounded=0;exitX=0;exitY=0.5;exitDx=0;exitDy=0;entryX=1;entryY=0.5;entryDx=0;entryDy=0;" parent="1" source="VzG8-4p2IzFKK54a7V07-103" target="VzG8-4p2IzFKK54a7V07-100" edge="1">
          <mxGeometry relative="1" as="geometry">
            <mxPoint x="-250" y="980" as="sourcePoint" />
            <mxPoint x="-90" y="980" as="targetPoint" />
          </mxGeometry>
        </mxCell>
        <mxCell id="VzG8-4p2IzFKK54a7V07-106" value="" style="endArrow=none;html=1;rounded=0;entryX=0;entryY=0.5;entryDx=0;entryDy=0;exitX=1;exitY=0.5;exitDx=0;exitDy=0;" parent="1" source="VzG8-4p2IzFKK54a7V07-104" target="VzG8-4p2IzFKK54a7V07-100" edge="1">
          <mxGeometry relative="1" as="geometry">
            <mxPoint x="-370" y="960" as="sourcePoint" />
            <mxPoint x="-210" y="960" as="targetPoint" />
          </mxGeometry>
        </mxCell>
        <mxCell id="VzG8-4p2IzFKK54a7V07-107" value="" style="endArrow=none;html=1;rounded=0;exitX=1;exitY=0.5;exitDx=0;exitDy=0;entryX=0;entryY=0.5;entryDx=0;entryDy=0;" parent="1" source="VzG8-4p2IzFKK54a7V07-101" target="VzG8-4p2IzFKK54a7V07-104" edge="1">
          <mxGeometry relative="1" as="geometry">
            <mxPoint x="-450" y="1040" as="sourcePoint" />
            <mxPoint x="-290" y="1040" as="targetPoint" />
          </mxGeometry>
        </mxCell>
        <mxCell id="_4vCToPrs3ZwvSauzwrv-1" value="ID-Missão" style="ellipse;whiteSpace=wrap;html=1;align=center;fontStyle=4;" parent="1" vertex="1">
          <mxGeometry x="518" y="843.5" width="100" height="40" as="geometry" />
        </mxCell>
        <mxCell id="_4vCToPrs3ZwvSauzwrv-5" value="Personagens" style="ellipse;shape=doubleEllipse;margin=3;whiteSpace=wrap;html=1;align=center;" parent="1" vertex="1">
          <mxGeometry x="518" y="963.5" width="100" height="40" as="geometry" />
        </mxCell>
        <mxCell id="_4vCToPrs3ZwvSauzwrv-2" value="Título" style="ellipse;whiteSpace=wrap;html=1;align=center;" parent="1" vertex="1">
          <mxGeometry x="518" y="883.5" width="100" height="40" as="geometry" />
        </mxCell>
        <mxCell id="_4vCToPrs3ZwvSauzwrv-8" value="ID-História" style="ellipse;whiteSpace=wrap;html=1;align=center;fontStyle=4;" parent="1" vertex="1">
          <mxGeometry x="823" y="906" width="100" height="40" as="geometry" />
        </mxCell>
        <mxCell id="_4vCToPrs3ZwvSauzwrv-9" value="Título" style="ellipse;whiteSpace=wrap;html=1;align=center;" parent="1" vertex="1">
          <mxGeometry x="823" y="946" width="100" height="40" as="geometry" />
        </mxCell>
        <mxCell id="_4vCToPrs3ZwvSauzwrv-10" value="Enredo" style="ellipse;whiteSpace=wrap;html=1;align=center;" parent="1" vertex="1">
          <mxGeometry x="823" y="986" width="100" height="40" as="geometry" />
        </mxCell>
        <mxCell id="_4vCToPrs3ZwvSauzwrv-11" value="ID-Objetivo" style="ellipse;whiteSpace=wrap;html=1;align=center;fontStyle=4;" parent="1" vertex="1">
          <mxGeometry x="991" y="614" width="100" height="40" as="geometry" />
        </mxCell>
        <mxCell id="_4vCToPrs3ZwvSauzwrv-12" value="Título" style="ellipse;whiteSpace=wrap;html=1;align=center;" parent="1" vertex="1">
          <mxGeometry x="991" y="654" width="100" height="40" as="geometry" />
        </mxCell>
        <mxCell id="_4vCToPrs3ZwvSauzwrv-13" value="Retorno em XP" style="ellipse;whiteSpace=wrap;html=1;align=center;" parent="1" vertex="1">
          <mxGeometry x="993.5" y="693.75" width="100" height="40" as="geometry" />
        </mxCell>
        <mxCell id="_4vCToPrs3ZwvSauzwrv-15" value="Retorno em Dinheiro" style="ellipse;whiteSpace=wrap;html=1;align=center;" parent="1" vertex="1">
          <mxGeometry x="993.5" y="734" width="100" height="40" as="geometry" />
        </mxCell>
        <mxCell id="_4vCToPrs3ZwvSauzwrv-16" value="" style="endArrow=none;html=1;rounded=0;exitX=0.5;exitY=0;exitDx=0;exitDy=0;entryX=0;entryY=1;entryDx=0;entryDy=0;" parent="1" source="_4vCToPrs3ZwvSauzwrv-1" target="y91Bqe_7xXxEDmseq83t-313" edge="1">
          <mxGeometry relative="1" as="geometry">
            <mxPoint x="1073" y="866" as="sourcePoint" />
            <mxPoint x="1233" y="866" as="targetPoint" />
          </mxGeometry>
        </mxCell>
        <mxCell id="_4vCToPrs3ZwvSauzwrv-17" value="" style="endArrow=none;html=1;rounded=0;exitX=0.5;exitY=1;exitDx=0;exitDy=0;entryX=0.5;entryY=0;entryDx=0;entryDy=0;" parent="1" source="y91Bqe_7xXxEDmseq83t-322" target="_4vCToPrs3ZwvSauzwrv-8" edge="1">
          <mxGeometry relative="1" as="geometry">
            <mxPoint x="993" y="926" as="sourcePoint" />
            <mxPoint x="963" y="896" as="targetPoint" />
          </mxGeometry>
        </mxCell>
        <mxCell id="_4vCToPrs3ZwvSauzwrv-18" value="" style="endArrow=none;html=1;rounded=0;exitX=1;exitY=0.5;exitDx=0;exitDy=0;entryX=0;entryY=0.5;entryDx=0;entryDy=0;" parent="1" source="yl1Z2EMh4tdtqLIf2lp5-43" target="_4vCToPrs3ZwvSauzwrv-11" edge="1">
          <mxGeometry relative="1" as="geometry">
            <mxPoint x="1163" y="696" as="sourcePoint" />
            <mxPoint x="1323" y="696" as="targetPoint" />
          </mxGeometry>
        </mxCell>
        <mxCell id="_4vCToPrs3ZwvSauzwrv-19" value="" style="shape=link;html=1;rounded=0;exitX=1;exitY=0.5;exitDx=0;exitDy=0;entryX=0;entryY=0.5;entryDx=0;entryDy=0;" parent="1" source="yl1Z2EMh4tdtqLIf2lp5-42" target="yl1Z2EMh4tdtqLIf2lp5-43" edge="1">
          <mxGeometry relative="1" as="geometry">
            <mxPoint x="613" y="716" as="sourcePoint" />
            <mxPoint x="773" y="716" as="targetPoint" />
          </mxGeometry>
        </mxCell>
        <mxCell id="_4vCToPrs3ZwvSauzwrv-25" value="atual" style="text;strokeColor=none;fillColor=none;spacingLeft=4;spacingRight=4;overflow=hidden;rotatable=0;points=[[0,0.5],[1,0.5]];portConstraint=eastwest;fontSize=12;whiteSpace=wrap;html=1;" parent="1" vertex="1">
          <mxGeometry x="791" y="732" width="82" height="30" as="geometry" />
        </mxCell>
        <mxCell id="_4vCToPrs3ZwvSauzwrv-26" value="anterior" style="text;strokeColor=none;fillColor=none;spacingLeft=4;spacingRight=4;overflow=hidden;rotatable=0;points=[[0,0.5],[1,0.5]];portConstraint=eastwest;fontSize=12;whiteSpace=wrap;html=1;" parent="1" vertex="1">
          <mxGeometry x="793" y="793.75" width="114" height="30" as="geometry" />
        </mxCell>
        <mxCell id="_4vCToPrs3ZwvSauzwrv-27" value="" style="endArrow=none;html=1;rounded=0;exitX=0.5;exitY=1;exitDx=0;exitDy=0;entryX=0.5;entryY=0;entryDx=0;entryDy=0;" parent="1" source="y91Bqe_7xXxEDmseq83t-313" target="y91Bqe_7xXxEDmseq83t-321" edge="1">
          <mxGeometry relative="1" as="geometry">
            <mxPoint x="663" y="906" as="sourcePoint" />
            <mxPoint x="823" y="906" as="targetPoint" />
          </mxGeometry>
        </mxCell>
        <mxCell id="_4vCToPrs3ZwvSauzwrv-34" value="ID-Diálogo" style="ellipse;whiteSpace=wrap;html=1;align=center;fontStyle=4;" parent="1" vertex="1">
          <mxGeometry x="560" y="413" width="100" height="40" as="geometry" />
        </mxCell>
        <mxCell id="_4vCToPrs3ZwvSauzwrv-35" value="Descrição" style="ellipse;whiteSpace=wrap;html=1;align=center;" parent="1" vertex="1">
          <mxGeometry x="559" y="373" width="100" height="40" as="geometry" />
        </mxCell>
        <mxCell id="_4vCToPrs3ZwvSauzwrv-37" value="" style="endArrow=none;html=1;rounded=0;exitX=0.5;exitY=0;exitDx=0;exitDy=0;entryX=0.5;entryY=1;entryDx=0;entryDy=0;" parent="1" source="y91Bqe_7xXxEDmseq83t-308" target="_4vCToPrs3ZwvSauzwrv-34" edge="1">
          <mxGeometry relative="1" as="geometry">
            <mxPoint x="800" y="370" as="sourcePoint" />
            <mxPoint x="960" y="370" as="targetPoint" />
          </mxGeometry>
        </mxCell>
        <mxCell id="_4vCToPrs3ZwvSauzwrv-41" value="Texto de Fala" style="ellipse;whiteSpace=wrap;html=1;align=center;" parent="1" vertex="1">
          <mxGeometry x="960" y="376.88" width="100" height="40" as="geometry" />
        </mxCell>
        <mxCell id="_4vCToPrs3ZwvSauzwrv-43" value="" style="endArrow=none;html=1;rounded=0;exitX=0.5;exitY=0;exitDx=0;exitDy=0;entryX=0.5;entryY=1;entryDx=0;entryDy=0;" parent="1" source="VzG8-4p2IzFKK54a7V07-26" target="EIsXOY5WXs3Nit00pJgy-1" edge="1">
          <mxGeometry relative="1" as="geometry">
            <mxPoint x="1120" y="480" as="sourcePoint" />
            <mxPoint x="1010" y="453" as="targetPoint" />
          </mxGeometry>
        </mxCell>
        <mxCell id="_4vCToPrs3ZwvSauzwrv-54" value="ID-Sala" style="ellipse;whiteSpace=wrap;html=1;align=center;fontStyle=4;" parent="1" vertex="1">
          <mxGeometry x="0.48999999999999844" y="214" width="100" height="40" as="geometry" />
        </mxCell>
        <mxCell id="_4vCToPrs3ZwvSauzwrv-56" value="Nome" style="ellipse;whiteSpace=wrap;html=1;align=center;" parent="1" vertex="1">
          <mxGeometry x="0.48999999999999844" y="172.75" width="100" height="40" as="geometry" />
        </mxCell>
        <mxCell id="_4vCToPrs3ZwvSauzwrv-59" value="Descrição" style="ellipse;whiteSpace=wrap;html=1;align=center;" parent="1" vertex="1">
          <mxGeometry x="0.490000000000002" y="132.75" width="100" height="40" as="geometry" />
        </mxCell>
        <mxCell id="_4vCToPrs3ZwvSauzwrv-60" value="" style="endArrow=none;html=1;rounded=0;exitX=1;exitY=1;exitDx=0;exitDy=0;entryX=0;entryY=0;entryDx=0;entryDy=0;" parent="1" source="_4vCToPrs3ZwvSauzwrv-54" target="y91Bqe_7xXxEDmseq83t-95" edge="1">
          <mxGeometry relative="1" as="geometry">
            <mxPoint x="-10" y="290" as="sourcePoint" />
            <mxPoint x="150" y="290" as="targetPoint" />
          </mxGeometry>
        </mxCell>
        <mxCell id="_4vCToPrs3ZwvSauzwrv-61" value="destino" style="text;strokeColor=none;fillColor=none;spacingLeft=4;spacingRight=4;overflow=hidden;rotatable=0;points=[[0,0.5],[1,0.5]];portConstraint=eastwest;fontSize=12;whiteSpace=wrap;html=1;" parent="1" vertex="1">
          <mxGeometry x="249.5" y="300" width="87" height="30" as="geometry" />
        </mxCell>
        <mxCell id="_4vCToPrs3ZwvSauzwrv-62" value="origem" style="text;strokeColor=none;fillColor=none;spacingLeft=4;spacingRight=4;overflow=hidden;rotatable=0;points=[[0,0.5],[1,0.5]];portConstraint=eastwest;fontSize=12;whiteSpace=wrap;html=1;" parent="1" vertex="1">
          <mxGeometry x="248" y="252.88" width="120" height="30" as="geometry" />
        </mxCell>
        <mxCell id="_4vCToPrs3ZwvSauzwrv-68" value="" style="endArrow=none;html=1;rounded=0;exitX=0.5;exitY=0;exitDx=0;exitDy=0;entryX=0.5;entryY=1;entryDx=0;entryDy=0;" parent="1" source="y91Bqe_7xXxEDmseq83t-288" target="BWMztGNEZ59WZQLGVLkd-4" edge="1">
          <mxGeometry relative="1" as="geometry">
            <mxPoint x="748" y="163" as="sourcePoint" />
            <mxPoint x="599" y="227" as="targetPoint" />
          </mxGeometry>
        </mxCell>
        <mxCell id="_4vCToPrs3ZwvSauzwrv-70" value="ID-Estab" style="ellipse;whiteSpace=wrap;html=1;align=center;fontStyle=4;" parent="1" vertex="1">
          <mxGeometry x="900" y="186.75" width="100" height="40" as="geometry" />
        </mxCell>
        <mxCell id="_4vCToPrs3ZwvSauzwrv-71" value="Nome" style="ellipse;whiteSpace=wrap;html=1;align=center;" parent="1" vertex="1">
          <mxGeometry x="900" y="146.75" width="100" height="40" as="geometry" />
        </mxCell>
        <mxCell id="_4vCToPrs3ZwvSauzwrv-72" value="Descrição" style="ellipse;whiteSpace=wrap;html=1;align=center;" parent="1" vertex="1">
          <mxGeometry x="900" y="106.75" width="100" height="40" as="geometry" />
        </mxCell>
        <mxCell id="_4vCToPrs3ZwvSauzwrv-73" value="" style="endArrow=none;html=1;rounded=0;exitX=0.5;exitY=0;exitDx=0;exitDy=0;entryX=0.5;entryY=1;entryDx=0;entryDy=0;" parent="1" source="y91Bqe_7xXxEDmseq83t-287" target="_4vCToPrs3ZwvSauzwrv-70" edge="1">
          <mxGeometry relative="1" as="geometry">
            <mxPoint x="940" y="333" as="sourcePoint" />
            <mxPoint x="1100" y="333" as="targetPoint" />
          </mxGeometry>
        </mxCell>
        <mxCell id="_4vCToPrs3ZwvSauzwrv-74" value="ID-Mapa" style="ellipse;whiteSpace=wrap;html=1;align=center;fontStyle=4;" parent="1" vertex="1">
          <mxGeometry x="741" y="-239.69" width="100" height="40" as="geometry" />
        </mxCell>
        <mxCell id="_4vCToPrs3ZwvSauzwrv-75" value="Nome" style="ellipse;whiteSpace=wrap;html=1;align=center;" parent="1" vertex="1">
          <mxGeometry x="741" y="-279.69" width="100" height="40" as="geometry" />
        </mxCell>
        <mxCell id="_4vCToPrs3ZwvSauzwrv-77" value="" style="endArrow=none;html=1;rounded=0;exitX=1;exitY=0;exitDx=0;exitDy=0;entryX=0.5;entryY=1;entryDx=0;entryDy=0;" parent="1" source="y91Bqe_7xXxEDmseq83t-278" target="_4vCToPrs3ZwvSauzwrv-74" edge="1">
          <mxGeometry relative="1" as="geometry">
            <mxPoint x="666" y="-115.57" as="sourcePoint" />
            <mxPoint x="826" y="-115.57" as="targetPoint" />
            <Array as="points" />
          </mxGeometry>
        </mxCell>
        <mxCell id="tiVlSbfcnG_4zIivBW_u-1" value="ID-Ataque" style="ellipse;whiteSpace=wrap;html=1;align=center;fontStyle=4;" parent="1" vertex="1">
          <mxGeometry x="-650" y="-39.91" width="100" height="40" as="geometry" />
        </mxCell>
        <mxCell id="tiVlSbfcnG_4zIivBW_u-2" value="Descrição" style="ellipse;whiteSpace=wrap;html=1;align=center;" parent="1" vertex="1">
          <mxGeometry x="-650" y="-81.12" width="100" height="40" as="geometry" />
        </mxCell>
        <mxCell id="tiVlSbfcnG_4zIivBW_u-3" value="Dano" style="ellipse;whiteSpace=wrap;html=1;align=center;" parent="1" vertex="1">
          <mxGeometry x="-650" y="-121.12" width="100" height="40" as="geometry" />
        </mxCell>
        <mxCell id="tiVlSbfcnG_4zIivBW_u-4" value="" style="endArrow=none;html=1;rounded=0;exitX=0.5;exitY=0;exitDx=0;exitDy=0;entryX=0.5;entryY=1;entryDx=0;entryDy=0;" parent="1" source="y91Bqe_7xXxEDmseq83t-46" target="tiVlSbfcnG_4zIivBW_u-1" edge="1">
          <mxGeometry relative="1" as="geometry">
            <mxPoint x="-460" as="sourcePoint" />
            <mxPoint x="-300" as="targetPoint" />
          </mxGeometry>
        </mxCell>
        <mxCell id="tiVlSbfcnG_4zIivBW_u-5" value="ID-Animal" style="ellipse;whiteSpace=wrap;html=1;align=center;fontStyle=4;" parent="1" vertex="1">
          <mxGeometry x="-360" y="-100" width="100" height="40" as="geometry" />
        </mxCell>
        <mxCell id="tiVlSbfcnG_4zIivBW_u-7" value="Textura" style="ellipse;whiteSpace=wrap;html=1;align=center;" parent="1" vertex="1">
          <mxGeometry x="-360" y="-340" width="100" height="40" as="geometry" />
        </mxCell>
        <mxCell id="tiVlSbfcnG_4zIivBW_u-8" value="Vida Máx" style="ellipse;whiteSpace=wrap;html=1;align=center;" parent="1" vertex="1">
          <mxGeometry x="-360" y="-260" width="100" height="40" as="geometry" />
        </mxCell>
        <mxCell id="tiVlSbfcnG_4zIivBW_u-9" value="Stamina Máx" style="ellipse;whiteSpace=wrap;html=1;align=center;" parent="1" vertex="1">
          <mxGeometry x="-360" y="-300" width="100" height="40" as="geometry" />
        </mxCell>
        <mxCell id="tiVlSbfcnG_4zIivBW_u-10" value="Velocidade" style="ellipse;whiteSpace=wrap;html=1;align=center;" parent="1" vertex="1">
          <mxGeometry x="-360" y="-220" width="100" height="40" as="geometry" />
        </mxCell>
        <mxCell id="tiVlSbfcnG_4zIivBW_u-12" value="Espécie" style="ellipse;whiteSpace=wrap;html=1;align=center;" parent="1" vertex="1">
          <mxGeometry x="-360" y="-140" width="100" height="40" as="geometry" />
        </mxCell>
        <mxCell id="tiVlSbfcnG_4zIivBW_u-15" value="" style="endArrow=none;html=1;rounded=0;exitX=1;exitY=0.5;exitDx=0;exitDy=0;entryX=0;entryY=0.5;entryDx=0;entryDy=0;" parent="1" source="tiVlSbfcnG_4zIivBW_u-5" target="MHSS6djbWjyrjED063CA-14" edge="1">
          <mxGeometry relative="1" as="geometry">
            <mxPoint x="-120" y="-130" as="sourcePoint" />
            <mxPoint x="40" y="-130" as="targetPoint" />
          </mxGeometry>
        </mxCell>
        <mxCell id="tiVlSbfcnG_4zIivBW_u-18" value="Vida Atual" style="ellipse;whiteSpace=wrap;html=1;align=center;" parent="1" vertex="1">
          <mxGeometry x="110" y="-201.12" width="100" height="40" as="geometry" />
        </mxCell>
        <mxCell id="tiVlSbfcnG_4zIivBW_u-19" value="Stamina Atual" style="ellipse;whiteSpace=wrap;html=1;align=center;" parent="1" vertex="1">
          <mxGeometry x="110" y="-241.12" width="100" height="40" as="geometry" />
        </mxCell>
        <mxCell id="tiVlSbfcnG_4zIivBW_u-20" value="" style="endArrow=none;html=1;rounded=0;entryX=0.5;entryY=1;entryDx=0;entryDy=0;exitX=0.5;exitY=0;exitDx=0;exitDy=0;" parent="1" source="y91Bqe_7xXxEDmseq83t-78" target="ANBRhXb5nSFzY9_dUsO1-7" edge="1">
          <mxGeometry relative="1" as="geometry">
            <mxPoint x="230" y="-100" as="sourcePoint" />
            <mxPoint x="160" y="-110" as="targetPoint" />
          </mxGeometry>
        </mxCell>
        <mxCell id="tiVlSbfcnG_4zIivBW_u-21" value="ID-Personagem" style="ellipse;whiteSpace=wrap;html=1;align=center;fontStyle=4;" parent="1" vertex="1">
          <mxGeometry x="157" y="1188" width="100" height="40" as="geometry" />
        </mxCell>
        <mxCell id="tiVlSbfcnG_4zIivBW_u-23" value="Vida Máx" style="ellipse;whiteSpace=wrap;html=1;align=center;" parent="1" vertex="1">
          <mxGeometry x="159.5" y="1349.5" width="100" height="40" as="geometry" />
        </mxCell>
        <mxCell id="tiVlSbfcnG_4zIivBW_u-24" value="Inventário" style="ellipse;whiteSpace=wrap;html=1;align=center;" parent="1" vertex="1">
          <mxGeometry x="157" y="1309.5" width="100" height="40" as="geometry" />
        </mxCell>
        <mxCell id="tiVlSbfcnG_4zIivBW_u-25" value="Velocidade" style="ellipse;whiteSpace=wrap;html=1;align=center;" parent="1" vertex="1">
          <mxGeometry x="157" y="1269.5" width="100" height="40" as="geometry" />
        </mxCell>
        <mxCell id="tiVlSbfcnG_4zIivBW_u-26" value="Nome" style="ellipse;whiteSpace=wrap;html=1;align=center;" parent="1" vertex="1">
          <mxGeometry x="157" y="1228" width="100" height="40" as="geometry" />
        </mxCell>
        <mxCell id="tiVlSbfcnG_4zIivBW_u-29" value="" style="endArrow=none;html=1;rounded=0;entryX=1;entryY=0.5;entryDx=0;entryDy=0;exitX=0.5;exitY=0;exitDx=0;exitDy=0;" parent="1" source="tiVlSbfcnG_4zIivBW_u-21" target="y91Bqe_7xXxEDmseq83t-129" edge="1">
          <mxGeometry relative="1" as="geometry">
            <mxPoint x="-311.5" y="846.43" as="sourcePoint" />
            <mxPoint x="244.75" y="1181.7499999999998" as="targetPoint" />
          </mxGeometry>
        </mxCell>
        <mxCell id="tiVlSbfcnG_4zIivBW_u-30" value="" style="endArrow=none;html=1;rounded=0;entryX=0.161;entryY=0.005;entryDx=0;entryDy=0;entryPerimeter=0;exitX=0.003;exitY=0.331;exitDx=0;exitDy=0;exitPerimeter=0;" parent="1" source="y91Bqe_7xXxEDmseq83t-130" target="edTjm4dISCqz6r1TiSTo-56" edge="1">
          <mxGeometry relative="1" as="geometry">
            <mxPoint x="87" y="1062" as="sourcePoint" />
            <mxPoint x="240" y="1042" as="targetPoint" />
            <Array as="points">
              <mxPoint x="87" y="1042" />
              <mxPoint x="230" y="1042" />
            </Array>
          </mxGeometry>
        </mxCell>
        <mxCell id="tiVlSbfcnG_4zIivBW_u-34" value="ID-Personagem" style="ellipse;whiteSpace=wrap;html=1;align=center;fontStyle=4;" parent="1" vertex="1">
          <mxGeometry x="-157" y="689.2" width="100" height="40" as="geometry" />
        </mxCell>
        <mxCell id="tiVlSbfcnG_4zIivBW_u-35" value="XP" style="ellipse;whiteSpace=wrap;html=1;align=center;" parent="1" vertex="1">
          <mxGeometry x="-155.51" y="729.2" width="100" height="40" as="geometry" />
        </mxCell>
        <mxCell id="tiVlSbfcnG_4zIivBW_u-36" value="Vida atual" style="ellipse;whiteSpace=wrap;html=1;align=center;" parent="1" vertex="1">
          <mxGeometry x="-153.75" y="810.7" width="100" height="40" as="geometry" />
        </mxCell>
        <mxCell id="tiVlSbfcnG_4zIivBW_u-37" value="Stamina Máx" style="ellipse;whiteSpace=wrap;html=1;align=center;" parent="1" vertex="1">
          <mxGeometry x="-57.00000000000001" y="689.2" width="100" height="40" as="geometry" />
        </mxCell>
        <mxCell id="tiVlSbfcnG_4zIivBW_u-38" value="Stamina Atual" style="ellipse;whiteSpace=wrap;html=1;align=center;" parent="1" vertex="1">
          <mxGeometry x="-53.88" y="729.2" width="100" height="40" as="geometry" />
        </mxCell>
        <mxCell id="tiVlSbfcnG_4zIivBW_u-40" value="Dinheiro" style="ellipse;whiteSpace=wrap;html=1;align=center;" parent="1" vertex="1">
          <mxGeometry x="-156" y="770.2" width="100" height="40" as="geometry" />
        </mxCell>
        <mxCell id="tiVlSbfcnG_4zIivBW_u-42" value="" style="endArrow=none;html=1;rounded=0;exitX=0;exitY=1;exitDx=0;exitDy=0;entryX=0.5;entryY=0;entryDx=0;entryDy=0;" parent="1" source="edTjm4dISCqz6r1TiSTo-55" target="tiVlSbfcnG_4zIivBW_u-34" edge="1">
          <mxGeometry relative="1" as="geometry">
            <mxPoint x="-50" y="540" as="sourcePoint" />
            <mxPoint x="110" y="540" as="targetPoint" />
          </mxGeometry>
        </mxCell>
        <mxCell id="tiVlSbfcnG_4zIivBW_u-43" value="&lt;div&gt;ID-Gangue&lt;/div&gt;" style="ellipse;whiteSpace=wrap;html=1;align=center;fontStyle=4;" parent="1" vertex="1">
          <mxGeometry x="-1115" y="959" width="100" height="40" as="geometry" />
        </mxCell>
        <mxCell id="tiVlSbfcnG_4zIivBW_u-44" value="&lt;div&gt;Nome&lt;/div&gt;" style="ellipse;whiteSpace=wrap;html=1;align=center;" parent="1" vertex="1">
          <mxGeometry x="-1115" y="919" width="100" height="40" as="geometry" />
        </mxCell>
        <mxCell id="tiVlSbfcnG_4zIivBW_u-45" value="Descrição" style="ellipse;whiteSpace=wrap;html=1;align=center;" parent="1" vertex="1">
          <mxGeometry x="-1115" y="879" width="100" height="40" as="geometry" />
        </mxCell>
        <mxCell id="tiVlSbfcnG_4zIivBW_u-46" value="&lt;div&gt;&lt;br&gt;&lt;/div&gt;&lt;div&gt;&lt;div&gt;&lt;span style=&quot;background-color: initial;&quot;&gt;Líder&lt;/span&gt;&lt;/div&gt;&lt;div&gt;&lt;br&gt;&lt;/div&gt;&lt;/div&gt;" style="ellipse;whiteSpace=wrap;html=1;align=center;" parent="1" vertex="1">
          <mxGeometry x="-1115" y="839" width="100" height="40" as="geometry" />
        </mxCell>
        <mxCell id="tiVlSbfcnG_4zIivBW_u-48" value="Gangue" style="ellipse;whiteSpace=wrap;html=1;align=center;" parent="1" vertex="1">
          <mxGeometry x="160.5" y="1431.5" width="100" height="40" as="geometry" />
        </mxCell>
        <mxCell id="tiVlSbfcnG_4zIivBW_u-49" value="" style="endArrow=none;html=1;rounded=0;exitX=0.75;exitY=0;exitDx=0;exitDy=0;entryX=0.553;entryY=1.003;entryDx=0;entryDy=0;entryPerimeter=0;" parent="1" source="edTjm4dISCqz6r1TiSTo-25" target="tiVlSbfcnG_4zIivBW_u-43" edge="1">
          <mxGeometry relative="1" as="geometry">
            <mxPoint x="-670" y="920" as="sourcePoint" />
            <mxPoint x="-510" y="920" as="targetPoint" />
          </mxGeometry>
        </mxCell>
        <mxCell id="_4vCToPrs3ZwvSauzwrv-4" value="Nível de Dificuldade" style="ellipse;whiteSpace=wrap;html=1;align=center;" parent="1" vertex="1">
          <mxGeometry x="521" y="923.5" width="100" height="40" as="geometry" />
        </mxCell>
        <mxCell id="aM7kKrautKZpTLY5Rr8k-5" value="Classe" style="ellipse;whiteSpace=wrap;html=1;align=center;" parent="1" vertex="1">
          <mxGeometry x="160.5" y="1391.5" width="100" height="40" as="geometry" />
        </mxCell>
        <mxCell id="aM7kKrautKZpTLY5Rr8k-12" value="Vida atual" style="ellipse;whiteSpace=wrap;html=1;align=center;" parent="1" vertex="1">
          <mxGeometry x="324" y="590" width="100" height="40" as="geometry" />
        </mxCell>
        <mxCell id="aM7kKrautKZpTLY5Rr8k-13" value="" style="endArrow=none;html=1;rounded=0;exitX=1;exitY=1;exitDx=0;exitDy=0;entryX=0;entryY=0;entryDx=0;entryDy=0;" parent="1" source="y91Bqe_7xXxEDmseq83t-105" target="ANBRhXb5nSFzY9_dUsO1-9" edge="1">
          <mxGeometry relative="1" as="geometry">
            <mxPoint x="560" y="610" as="sourcePoint" />
            <mxPoint x="335.5" y="557.1199999999999" as="targetPoint" />
          </mxGeometry>
        </mxCell>
        <mxCell id="aM7kKrautKZpTLY5Rr8k-19" value="ID-Classe" style="ellipse;whiteSpace=wrap;html=1;align=center;fontStyle=4;" parent="1" vertex="1">
          <mxGeometry x="-482" y="1222" width="100" height="40" as="geometry" />
        </mxCell>
        <mxCell id="aM7kKrautKZpTLY5Rr8k-20" value="ID-Habilidade" style="ellipse;whiteSpace=wrap;html=1;align=center;fontStyle=4;" parent="1" vertex="1">
          <mxGeometry x="-822" y="1219" width="100" height="40" as="geometry" />
        </mxCell>
        <mxCell id="aM7kKrautKZpTLY5Rr8k-21" value="Nome" style="ellipse;whiteSpace=wrap;html=1;align=center;" parent="1" vertex="1">
          <mxGeometry x="-482" y="1262" width="100" height="40" as="geometry" />
        </mxCell>
        <mxCell id="aM7kKrautKZpTLY5Rr8k-22" value="Habilidades" style="ellipse;whiteSpace=wrap;html=1;align=center;" parent="1" vertex="1">
          <mxGeometry x="-482" y="1301" width="100" height="40" as="geometry" />
        </mxCell>
        <mxCell id="aM7kKrautKZpTLY5Rr8k-23" value="Nome" style="ellipse;whiteSpace=wrap;html=1;align=center;" parent="1" vertex="1">
          <mxGeometry x="-822" y="1259" width="100" height="40" as="geometry" />
        </mxCell>
        <mxCell id="aM7kKrautKZpTLY5Rr8k-24" value="Porcentagem" style="ellipse;whiteSpace=wrap;html=1;align=center;" parent="1" vertex="1">
          <mxGeometry x="-822" y="1299" width="100" height="40" as="geometry" />
        </mxCell>
        <mxCell id="aM7kKrautKZpTLY5Rr8k-25" value="" style="endArrow=none;html=1;rounded=0;exitX=0.5;exitY=0;exitDx=0;exitDy=0;entryX=0;entryY=1;entryDx=0;entryDy=0;" parent="1" source="aM7kKrautKZpTLY5Rr8k-20" target="VzG8-4p2IzFKK54a7V07-101" edge="1">
          <mxGeometry relative="1" as="geometry">
            <mxPoint x="-600" y="1210" as="sourcePoint" />
            <mxPoint x="-440" y="1210" as="targetPoint" />
          </mxGeometry>
        </mxCell>
        <mxCell id="aM7kKrautKZpTLY5Rr8k-26" value="" style="endArrow=none;html=1;rounded=0;exitX=0.5;exitY=1;exitDx=0;exitDy=0;entryX=0.5;entryY=0;entryDx=0;entryDy=0;" parent="1" source="VzG8-4p2IzFKK54a7V07-100" target="aM7kKrautKZpTLY5Rr8k-19" edge="1">
          <mxGeometry relative="1" as="geometry">
            <mxPoint x="-630" y="1240" as="sourcePoint" />
            <mxPoint x="-470" y="1240" as="targetPoint" />
          </mxGeometry>
        </mxCell>
        <mxCell id="aM7kKrautKZpTLY5Rr8k-32" value="ataca" style="text;strokeColor=none;fillColor=none;spacingLeft=4;spacingRight=4;overflow=hidden;rotatable=0;points=[[0,0.5],[1,0.5]];portConstraint=eastwest;fontSize=12;whiteSpace=wrap;html=1;" parent="1" vertex="1">
          <mxGeometry x="-237" y="161" width="40" height="30" as="geometry" />
        </mxCell>
        <mxCell id="aM7kKrautKZpTLY5Rr8k-34" value="é atacado por" style="text;strokeColor=none;fillColor=none;spacingLeft=4;spacingRight=4;overflow=hidden;rotatable=0;points=[[0,0.5],[1,0.5]];portConstraint=eastwest;fontSize=12;whiteSpace=wrap;html=1;" parent="1" vertex="1">
          <mxGeometry x="-233" y="397" width="76" height="30" as="geometry" />
        </mxCell>
        <mxCell id="aM7kKrautKZpTLY5Rr8k-35" value="doma" style="text;strokeColor=none;fillColor=none;spacingLeft=4;spacingRight=4;overflow=hidden;rotatable=0;points=[[0,0.5],[1,0.5]];portConstraint=eastwest;fontSize=12;whiteSpace=wrap;html=1;" parent="1" vertex="1">
          <mxGeometry x="-70" y="323" width="40" height="30" as="geometry" />
        </mxCell>
        <mxCell id="aM7kKrautKZpTLY5Rr8k-36" value="é domado por" style="text;strokeColor=none;fillColor=none;spacingLeft=4;spacingRight=4;overflow=hidden;rotatable=0;points=[[0,0.5],[1,0.5]];portConstraint=eastwest;fontSize=12;whiteSpace=wrap;html=1;" parent="1" vertex="1">
          <mxGeometry x="63.75" y="51" width="76" height="30" as="geometry" />
        </mxCell>
        <mxCell id="aM7kKrautKZpTLY5Rr8k-40" value="ID-Dono" style="ellipse;whiteSpace=wrap;html=1;align=center;fontStyle=4;" parent="1" vertex="1">
          <mxGeometry x="-797.75" y="883.6899999999999" width="100" height="40" as="geometry" />
        </mxCell>
        <mxCell id="aM7kKrautKZpTLY5Rr8k-42" value="Capacidade" style="ellipse;whiteSpace=wrap;html=1;align=center;" parent="1" vertex="1">
          <mxGeometry x="-797.75" y="963.81" width="100" height="40" as="geometry" />
        </mxCell>
        <mxCell id="aM7kKrautKZpTLY5Rr8k-45" value="" style="endArrow=none;html=1;rounded=0;entryX=0;entryY=0.5;entryDx=0;entryDy=0;exitX=1;exitY=0.5;exitDx=0;exitDy=0;" parent="1" source="aM7kKrautKZpTLY5Rr8k-40" target="GcbjipwZdxQqbnMk5Tjc-1" edge="1">
          <mxGeometry relative="1" as="geometry">
            <mxPoint x="-741" y="838" as="sourcePoint" />
            <mxPoint x="-661" y="943.75" as="targetPoint" />
          </mxGeometry>
        </mxCell>
        <mxCell id="aM7kKrautKZpTLY5Rr8k-49" value="" style="endArrow=none;html=1;rounded=0;entryX=0.25;entryY=0;entryDx=0;entryDy=0;exitX=1;exitY=0.5;exitDx=0;exitDy=0;" parent="1" source="ANBRhXb5nSFzY9_dUsO1-8" target="y91Bqe_7xXxEDmseq83t-142" edge="1">
          <mxGeometry relative="1" as="geometry">
            <mxPoint x="-810" y="390" as="sourcePoint" />
            <mxPoint x="-650" y="390" as="targetPoint" />
          </mxGeometry>
        </mxCell>
        <mxCell id="aM7kKrautKZpTLY5Rr8k-50" value="ID-Item" style="ellipse;whiteSpace=wrap;html=1;align=center;fontStyle=4;" parent="1" vertex="1">
          <mxGeometry x="-766" y="203.75" width="100" height="40" as="geometry" />
        </mxCell>
        <mxCell id="aM7kKrautKZpTLY5Rr8k-51" value="Nome" style="ellipse;whiteSpace=wrap;html=1;align=center;" parent="1" vertex="1">
          <mxGeometry x="-769" y="162" width="100" height="40" as="geometry" />
        </mxCell>
        <mxCell id="aM7kKrautKZpTLY5Rr8k-52" value="" style="endArrow=none;html=1;rounded=0;entryX=0.5;entryY=0;entryDx=0;entryDy=0;exitX=0.5;exitY=1;exitDx=0;exitDy=0;" parent="1" source="aM7kKrautKZpTLY5Rr8k-50" target="y91Bqe_7xXxEDmseq83t-141" edge="1">
          <mxGeometry relative="1" as="geometry">
            <mxPoint x="-1040" y="150" as="sourcePoint" />
            <mxPoint x="-880" y="150" as="targetPoint" />
          </mxGeometry>
        </mxCell>
        <mxCell id="aM7kKrautKZpTLY5Rr8k-54" value="Qtd Reparação Vida" style="ellipse;whiteSpace=wrap;html=1;align=center;" parent="1" vertex="1">
          <mxGeometry x="-1280" y="379.25" width="100" height="40" as="geometry" />
        </mxCell>
        <mxCell id="aM7kKrautKZpTLY5Rr8k-55" value="Qtd Reparação Stamina" style="ellipse;whiteSpace=wrap;html=1;align=center;" parent="1" vertex="1">
          <mxGeometry x="-1280" y="339" width="100" height="40" as="geometry" />
        </mxCell>
        <mxCell id="aM7kKrautKZpTLY5Rr8k-56" value="" style="endArrow=none;html=1;rounded=0;exitX=0;exitY=0.5;exitDx=0;exitDy=0;entryX=0.5;entryY=0;entryDx=0;entryDy=0;" parent="1" source="y91Bqe_7xXxEDmseq83t-296" target="aM7kKrautKZpTLY5Rr8k-55" edge="1">
          <mxGeometry relative="1" as="geometry">
            <mxPoint x="-910" y="180" as="sourcePoint" />
            <mxPoint x="-750" y="180" as="targetPoint" />
          </mxGeometry>
        </mxCell>
        <mxCell id="JG37l2Nl0ePofITizdYf-5" value="Status" style="ellipse;whiteSpace=wrap;html=1;align=center;" parent="1" vertex="1">
          <mxGeometry x="517" y="1083.82" width="100" height="40" as="geometry" />
        </mxCell>
        <mxCell id="JG37l2Nl0ePofITizdYf-6" value="participa" style="shape=rhombus;perimeter=rhombusPerimeter;whiteSpace=wrap;html=1;align=center;" parent="1" vertex="1">
          <mxGeometry x="490" y="596" width="120" height="60" as="geometry" />
        </mxCell>
        <mxCell id="JG37l2Nl0ePofITizdYf-7" value="" style="endArrow=none;html=1;rounded=0;entryX=0.5;entryY=1;entryDx=0;entryDy=0;exitX=0.25;exitY=0;exitDx=0;exitDy=0;" parent="1" source="y91Bqe_7xXxEDmseq83t-313" target="JG37l2Nl0ePofITizdYf-6" edge="1">
          <mxGeometry relative="1" as="geometry">
            <mxPoint x="360" y="880" as="sourcePoint" />
            <mxPoint x="520" y="880" as="targetPoint" />
            <Array as="points">
              <mxPoint x="678" y="730" />
              <mxPoint x="550" y="730" />
            </Array>
          </mxGeometry>
        </mxCell>
        <mxCell id="JG37l2Nl0ePofITizdYf-8" value="" style="endArrow=none;html=1;rounded=0;exitX=1.004;exitY=0.794;exitDx=0;exitDy=0;entryX=0.5;entryY=0;entryDx=0;entryDy=0;exitPerimeter=0;" parent="1" source="y91Bqe_7xXxEDmseq83t-105" target="JG37l2Nl0ePofITizdYf-6" edge="1">
          <mxGeometry relative="1" as="geometry">
            <mxPoint x="314" y="515.8800000000001" as="sourcePoint" />
            <mxPoint x="545" y="595" as="targetPoint" />
            <Array as="points">
              <mxPoint x="350" y="519" />
              <mxPoint x="350" y="540" />
              <mxPoint x="550" y="540" />
            </Array>
          </mxGeometry>
        </mxCell>
        <mxCell id="JG37l2Nl0ePofITizdYf-12" value="contém" style="text;strokeColor=none;fillColor=none;spacingLeft=4;spacingRight=4;overflow=hidden;rotatable=0;points=[[0,0.5],[1,0.5]];portConstraint=eastwest;fontSize=12;whiteSpace=wrap;html=1;" parent="1" vertex="1">
          <mxGeometry x="560" y="669" width="50" height="30" as="geometry" />
        </mxCell>
        <mxCell id="JG37l2Nl0ePofITizdYf-13" value="faz parte" style="text;strokeColor=none;fillColor=none;spacingLeft=4;spacingRight=4;overflow=hidden;rotatable=0;points=[[0,0.5],[1,0.5]];portConstraint=eastwest;fontSize=12;whiteSpace=wrap;html=1;" parent="1" vertex="1">
          <mxGeometry x="480" y="550" width="75" height="30" as="geometry" />
        </mxCell>
        <mxCell id="EIsXOY5WXs3Nit00pJgy-1" value="&lt;span style=&quot;border-bottom: 1px dotted&quot;&gt;ID-Linha-de_Fala&lt;/span&gt;" style="ellipse;whiteSpace=wrap;html=1;align=center;" parent="1" vertex="1">
          <mxGeometry x="960" y="416.88" width="100" height="40" as="geometry" />
        </mxCell>
        <mxCell id="EIsXOY5WXs3Nit00pJgy-5" value="Habitat" style="ellipse;whiteSpace=wrap;html=1;align=center;" parent="1" vertex="1">
          <mxGeometry x="-362" y="-180" width="100" height="40" as="geometry" />
        </mxCell>
        <mxCell id="ANBRhXb5nSFzY9_dUsO1-1" value="possui" style="text;html=1;align=center;verticalAlign=middle;whiteSpace=wrap;rounded=0;" parent="1" vertex="1">
          <mxGeometry x="-653.99" y="1059.5" width="60" height="30" as="geometry" />
        </mxCell>
        <mxCell id="ANBRhXb5nSFzY9_dUsO1-2" value="faz parte" style="text;html=1;align=center;verticalAlign=middle;whiteSpace=wrap;rounded=0;" parent="1" vertex="1">
          <mxGeometry x="-384" y="1059.5" width="60" height="30" as="geometry" />
        </mxCell>
        <mxCell id="ANBRhXb5nSFzY9_dUsO1-7" value="&lt;span style=&quot;border-bottom: 1px dotted&quot;&gt;ID-Inst-Animal&lt;/span&gt;" style="ellipse;whiteSpace=wrap;html=1;align=center;" parent="1" vertex="1">
          <mxGeometry x="110" y="-161.12" width="100" height="40" as="geometry" />
        </mxCell>
        <mxCell id="ANBRhXb5nSFzY9_dUsO1-8" value="&lt;span style=&quot;border-bottom: 1px dotted&quot;&gt;ID-Inst-Item&lt;/span&gt;" style="ellipse;whiteSpace=wrap;html=1;align=center;" parent="1" vertex="1">
          <mxGeometry x="-824" y="340.11" width="100" height="40" as="geometry" />
        </mxCell>
        <mxCell id="ANBRhXb5nSFzY9_dUsO1-9" value="&lt;span style=&quot;border-bottom: 1px dotted&quot;&gt;ID-Inst-NPC&lt;/span&gt;" style="ellipse;whiteSpace=wrap;html=1;align=center;" parent="1" vertex="1">
          <mxGeometry x="321" y="550" width="100" height="40" as="geometry" />
        </mxCell>
        <mxCell id="VM11jIHiv6p8rIlFp_Qz-3" value="Parte do corpo" style="ellipse;whiteSpace=wrap;html=1;align=center;" parent="1" vertex="1">
          <mxGeometry x="-1290" y="235.88" width="100" height="40" as="geometry" />
        </mxCell>
        <mxCell id="VM11jIHiv6p8rIlFp_Qz-4" value="" style="endArrow=none;html=1;rounded=0;exitX=0.5;exitY=0;exitDx=0;exitDy=0;entryX=0;entryY=0.75;entryDx=0;entryDy=0;" parent="1" source="VM11jIHiv6p8rIlFp_Qz-3" target="y91Bqe_7xXxEDmseq83t-303" edge="1">
          <mxGeometry relative="1" as="geometry">
            <mxPoint x="-1280" y="460" as="sourcePoint" />
            <mxPoint x="-1120" y="460" as="targetPoint" />
          </mxGeometry>
        </mxCell>
        <mxCell id="ygH41liseYAadWKIoqiI-1" value="(1, N)" style="text;html=1;align=center;verticalAlign=middle;whiteSpace=wrap;rounded=0;" parent="1" vertex="1">
          <mxGeometry x="-550" y="37" width="60" height="30" as="geometry" />
        </mxCell>
        <mxCell id="ygH41liseYAadWKIoqiI-2" value="(1, N)" style="text;html=1;align=center;verticalAlign=middle;whiteSpace=wrap;rounded=0;" parent="1" vertex="1">
          <mxGeometry x="-350" y="37.25" width="60" height="30" as="geometry" />
        </mxCell>
        <mxCell id="ygH41liseYAadWKIoqiI-3" value="(1, 1)" style="text;html=1;align=center;verticalAlign=middle;whiteSpace=wrap;rounded=0;" parent="1" vertex="1">
          <mxGeometry x="844" y="245.88" width="60" height="30" as="geometry" />
        </mxCell>
        <mxCell id="ygH41liseYAadWKIoqiI-4" value="(0, N)" style="text;html=1;align=center;verticalAlign=middle;whiteSpace=wrap;rounded=0;" parent="1" vertex="1">
          <mxGeometry x="51.49000000000001" y="-86" width="60" height="30" as="geometry" />
        </mxCell>
        <mxCell id="ygH41liseYAadWKIoqiI-5" value="(1, 1)" style="text;html=1;align=center;verticalAlign=middle;whiteSpace=wrap;rounded=0;" parent="1" vertex="1">
          <mxGeometry x="-121" y="-84.12" width="60" height="30" as="geometry" />
        </mxCell>
        <mxCell id="ygH41liseYAadWKIoqiI-6" value="Região" style="whiteSpace=wrap;html=1;align=center;" parent="1" vertex="1">
          <mxGeometry x="436" y="-15" width="80" height="45" as="geometry" />
        </mxCell>
        <mxCell id="ygH41liseYAadWKIoqiI-7" value="ID-Região" style="ellipse;whiteSpace=wrap;html=1;align=center;fontStyle=4;" parent="1" vertex="1">
          <mxGeometry x="502" y="-93.44" width="100" height="40" as="geometry" />
        </mxCell>
        <mxCell id="ygH41liseYAadWKIoqiI-9" value="Nome" style="ellipse;whiteSpace=wrap;html=1;align=center;" parent="1" vertex="1">
          <mxGeometry x="502" y="-134.69" width="100" height="40" as="geometry" />
        </mxCell>
        <mxCell id="ygH41liseYAadWKIoqiI-10" value="Descrição" style="ellipse;whiteSpace=wrap;html=1;align=center;" parent="1" vertex="1">
          <mxGeometry x="502" y="-174.69" width="100" height="40" as="geometry" />
        </mxCell>
        <mxCell id="ygH41liseYAadWKIoqiI-11" value="faz_fronteira" style="shape=rhombus;perimeter=rhombusPerimeter;whiteSpace=wrap;html=1;align=center;" parent="1" vertex="1">
          <mxGeometry x="249.5" y="-18" width="120" height="60" as="geometry" />
        </mxCell>
        <mxCell id="ygH41liseYAadWKIoqiI-12" value="" style="endArrow=none;html=1;rounded=0;entryX=0.5;entryY=0;entryDx=0;entryDy=0;exitX=0;exitY=0.5;exitDx=0;exitDy=0;" parent="1" source="ygH41liseYAadWKIoqiI-6" target="ygH41liseYAadWKIoqiI-11" edge="1">
          <mxGeometry relative="1" as="geometry">
            <mxPoint x="230" y="-50" as="sourcePoint" />
            <mxPoint x="500" y="-125.63" as="targetPoint" />
          </mxGeometry>
        </mxCell>
        <mxCell id="ygH41liseYAadWKIoqiI-13" value="" style="endArrow=none;html=1;rounded=0;exitX=0;exitY=0.5;exitDx=0;exitDy=0;entryX=0.5;entryY=1;entryDx=0;entryDy=0;" parent="1" source="ygH41liseYAadWKIoqiI-6" target="ygH41liseYAadWKIoqiI-11" edge="1">
          <mxGeometry relative="1" as="geometry">
            <mxPoint x="224" y="-55.629999999999995" as="sourcePoint" />
            <mxPoint x="340" y="-75.63" as="targetPoint" />
          </mxGeometry>
        </mxCell>
        <mxCell id="ygH41liseYAadWKIoqiI-14" value="origem" style="text;strokeColor=none;fillColor=none;spacingLeft=4;spacingRight=4;overflow=hidden;rotatable=0;points=[[0,0.5],[1,0.5]];portConstraint=eastwest;fontSize=12;whiteSpace=wrap;html=1;" parent="1" vertex="1">
          <mxGeometry x="382.49" y="12" width="87" height="30" as="geometry" />
        </mxCell>
        <mxCell id="ygH41liseYAadWKIoqiI-15" value="destino" style="text;strokeColor=none;fillColor=none;spacingLeft=4;spacingRight=4;overflow=hidden;rotatable=0;points=[[0,0.5],[1,0.5]];portConstraint=eastwest;fontSize=12;whiteSpace=wrap;html=1;" parent="1" vertex="1">
          <mxGeometry x="381.5" y="-22" width="51" height="30" as="geometry" />
        </mxCell>
        <mxCell id="ygH41liseYAadWKIoqiI-16" value="&lt;font style=&quot;font-size: 10px;&quot;&gt;Contém&lt;/font&gt;" style="shape=rhombus;perimeter=rhombusPerimeter;whiteSpace=wrap;html=1;align=center;" parent="1" vertex="1">
          <mxGeometry x="437" y="128.75" width="77.5" height="50" as="geometry" />
        </mxCell>
        <mxCell id="ygH41liseYAadWKIoqiI-17" value="" style="endArrow=none;html=1;rounded=0;exitX=0.5;exitY=1;exitDx=0;exitDy=0;entryX=0.5;entryY=0;entryDx=0;entryDy=0;" parent="1" source="ygH41liseYAadWKIoqiI-6" target="ygH41liseYAadWKIoqiI-16" edge="1">
          <mxGeometry relative="1" as="geometry">
            <mxPoint x="401" y="70" as="sourcePoint" />
            <mxPoint x="561" y="70" as="targetPoint" />
          </mxGeometry>
        </mxCell>
        <mxCell id="ygH41liseYAadWKIoqiI-18" value="" style="endArrow=none;html=1;rounded=0;exitX=1;exitY=0.5;exitDx=0;exitDy=0;entryX=0;entryY=0.5;entryDx=0;entryDy=0;" parent="1" source="ygH41liseYAadWKIoqiI-6" target="y91Bqe_7xXxEDmseq83t-277" edge="1">
          <mxGeometry relative="1" as="geometry">
            <mxPoint x="560" y="90" as="sourcePoint" />
            <mxPoint x="720" y="90" as="targetPoint" />
          </mxGeometry>
        </mxCell>
        <mxCell id="ygH41liseYAadWKIoqiI-19" value="" style="endArrow=none;html=1;rounded=0;entryX=0;entryY=1;entryDx=0;entryDy=0;exitX=0.5;exitY=0;exitDx=0;exitDy=0;" parent="1" source="ygH41liseYAadWKIoqiI-6" target="ygH41liseYAadWKIoqiI-7" edge="1">
          <mxGeometry relative="1" as="geometry">
            <mxPoint x="360" y="-110" as="sourcePoint" />
            <mxPoint x="520" y="-110" as="targetPoint" />
          </mxGeometry>
        </mxCell>
        <mxCell id="ygH41liseYAadWKIoqiI-20" value="(0, N)" style="text;html=1;align=center;verticalAlign=middle;whiteSpace=wrap;rounded=0;" parent="1" vertex="1">
          <mxGeometry x="159" y="7" width="60" height="30" as="geometry" />
        </mxCell>
        <mxCell id="ygH41liseYAadWKIoqiI-21" value="(1, 1)" style="text;html=1;align=center;verticalAlign=middle;whiteSpace=wrap;rounded=0;" parent="1" vertex="1">
          <mxGeometry x="469" y="76.75" width="60" height="30" as="geometry" />
        </mxCell>
        <mxCell id="ygH41liseYAadWKIoqiI-22" value="(1, 1)" style="text;html=1;align=center;verticalAlign=middle;whiteSpace=wrap;rounded=0;" parent="1" vertex="1">
          <mxGeometry x="157" y="165" width="60" height="30" as="geometry" />
        </mxCell>
        <mxCell id="ygH41liseYAadWKIoqiI-23" value="(1, N)" style="text;html=1;align=center;verticalAlign=middle;whiteSpace=wrap;rounded=0;" parent="1" vertex="1">
          <mxGeometry x="279.5" y="198" width="60" height="30" as="geometry" />
        </mxCell>
        <mxCell id="ygH41liseYAadWKIoqiI-24" value="(0, N)" style="text;html=1;align=center;verticalAlign=middle;whiteSpace=wrap;rounded=0;" parent="1" vertex="1">
          <mxGeometry x="337" y="-32" width="60" height="30" as="geometry" />
        </mxCell>
        <mxCell id="ygH41liseYAadWKIoqiI-25" value="(0, N)" style="text;html=1;align=center;verticalAlign=middle;whiteSpace=wrap;rounded=0;" parent="1" vertex="1">
          <mxGeometry x="336.5" y="25" width="60" height="30" as="geometry" />
        </mxCell>
        <mxCell id="ygH41liseYAadWKIoqiI-26" value="(1, 1)" style="text;html=1;align=center;verticalAlign=middle;whiteSpace=wrap;rounded=0;" parent="1" vertex="1">
          <mxGeometry x="664" y="-76.11999999999999" width="60" height="30" as="geometry" />
        </mxCell>
        <mxCell id="ygH41liseYAadWKIoqiI-27" value="(1, N)" style="text;html=1;align=center;verticalAlign=middle;whiteSpace=wrap;rounded=0;" parent="1" vertex="1">
          <mxGeometry x="545" y="-17.25" width="60" height="30" as="geometry" />
        </mxCell>
        <mxCell id="ygH41liseYAadWKIoqiI-28" value="(1, N)" style="text;html=1;align=center;verticalAlign=middle;whiteSpace=wrap;rounded=0;" parent="1" vertex="1">
          <mxGeometry x="-249" y="133.75" width="60" height="30" as="geometry" />
        </mxCell>
        <mxCell id="ygH41liseYAadWKIoqiI-29" value="(0, N)" style="text;html=1;align=center;verticalAlign=middle;whiteSpace=wrap;rounded=0;" parent="1" vertex="1">
          <mxGeometry x="-245" y="369" width="60" height="30" as="geometry" />
        </mxCell>
        <mxCell id="ygH41liseYAadWKIoqiI-30" value="(1, 1)" style="text;html=1;align=center;verticalAlign=middle;whiteSpace=wrap;rounded=0;" parent="1" vertex="1">
          <mxGeometry x="-90" y="405" width="60" height="30" as="geometry" />
        </mxCell>
        <mxCell id="ygH41liseYAadWKIoqiI-31" value="(0, N)" style="text;html=1;align=center;verticalAlign=middle;whiteSpace=wrap;rounded=0;" parent="1" vertex="1">
          <mxGeometry x="53.25" y="32" width="60" height="30" as="geometry" />
        </mxCell>
        <mxCell id="ygH41liseYAadWKIoqiI-32" value="(1, N)" style="text;html=1;align=center;verticalAlign=middle;whiteSpace=wrap;rounded=0;" parent="1" vertex="1">
          <mxGeometry x="871" y="481" width="60" height="30" as="geometry" />
        </mxCell>
        <mxCell id="ygH41liseYAadWKIoqiI-33" value="(1, 1)" style="text;html=1;align=center;verticalAlign=middle;whiteSpace=wrap;rounded=0;" parent="1" vertex="1">
          <mxGeometry x="667" y="481.88" width="60" height="30" as="geometry" />
        </mxCell>
        <mxCell id="ygH41liseYAadWKIoqiI-34" value="(0, N)" style="text;html=1;align=center;verticalAlign=middle;whiteSpace=wrap;rounded=0;" parent="1" vertex="1">
          <mxGeometry x="662" y="242.88" width="60" height="30" as="geometry" />
        </mxCell>
        <mxCell id="ygH41liseYAadWKIoqiI-35" value="(0, N)" style="text;html=1;align=center;verticalAlign=middle;whiteSpace=wrap;rounded=0;" parent="1" vertex="1">
          <mxGeometry x="253" y="448" width="60" height="30" as="geometry" />
        </mxCell>
        <mxCell id="ygH41liseYAadWKIoqiI-37" value="(1, 1)" style="text;html=1;align=center;verticalAlign=middle;whiteSpace=wrap;rounded=0;" parent="1" vertex="1">
          <mxGeometry x="281.5" y="317" width="60" height="30" as="geometry" />
        </mxCell>
        <mxCell id="ygH41liseYAadWKIoqiI-38" value="(0, N)" style="text;html=1;align=center;verticalAlign=middle;whiteSpace=wrap;rounded=0;" parent="1" vertex="1">
          <mxGeometry x="471" y="247.5" width="60" height="30" as="geometry" />
        </mxCell>
        <mxCell id="ygH41liseYAadWKIoqiI-41" value="(1, N)" style="text;html=1;align=center;verticalAlign=middle;whiteSpace=wrap;rounded=0;" parent="1" vertex="1">
          <mxGeometry x="502" y="482.88" width="60" height="30" as="geometry" />
        </mxCell>
        <mxCell id="ygH41liseYAadWKIoqiI-42" value="(1, 1)" style="text;html=1;align=center;verticalAlign=middle;whiteSpace=wrap;rounded=0;" parent="1" vertex="1">
          <mxGeometry x="319" y="481" width="60" height="30" as="geometry" />
        </mxCell>
        <mxCell id="ygH41liseYAadWKIoqiI-43" value="(1, 1)" style="text;html=1;align=center;verticalAlign=middle;whiteSpace=wrap;rounded=0;" parent="1" vertex="1">
          <mxGeometry x="253" y="361" width="60" height="30" as="geometry" />
        </mxCell>
        <mxCell id="ygH41liseYAadWKIoqiI-44" value="(1, 1)" style="text;html=1;align=center;verticalAlign=middle;whiteSpace=wrap;rounded=0;" parent="1" vertex="1">
          <mxGeometry x="761" y="837" width="60" height="30" as="geometry" />
        </mxCell>
        <mxCell id="ygH41liseYAadWKIoqiI-47" value="(1, 1)" style="text;html=1;align=center;verticalAlign=middle;whiteSpace=wrap;rounded=0;" parent="1" vertex="1">
          <mxGeometry x="120" y="451.88" width="60" height="30" as="geometry" />
        </mxCell>
        <mxCell id="ygH41liseYAadWKIoqiI-48" value="(1, N)" style="text;html=1;align=center;verticalAlign=middle;whiteSpace=wrap;rounded=0;" parent="1" vertex="1">
          <mxGeometry x="29.49000000000001" y="430.25" width="60" height="30" as="geometry" />
        </mxCell>
        <mxCell id="ygH41liseYAadWKIoqiI-49" value="(1, 1&lt;span style=&quot;background-color: initial;&quot;&gt;)&lt;/span&gt;" style="text;html=1;align=center;verticalAlign=middle;whiteSpace=wrap;rounded=0;" parent="1" vertex="1">
          <mxGeometry x="122" y="354.25" width="60" height="30" as="geometry" />
        </mxCell>
        <mxCell id="ygH41liseYAadWKIoqiI-50" value="(1, 1)" style="text;html=1;align=center;verticalAlign=middle;whiteSpace=wrap;rounded=0;" parent="1" vertex="1">
          <mxGeometry x="23" y="293.88" width="60" height="30" as="geometry" />
        </mxCell>
        <mxCell id="ygH41liseYAadWKIoqiI-51" value="(0, N)" style="text;html=1;align=center;verticalAlign=middle;whiteSpace=wrap;rounded=0;" parent="1" vertex="1">
          <mxGeometry x="253" y="566" width="60" height="30" as="geometry" />
        </mxCell>
        <mxCell id="ygH41liseYAadWKIoqiI-52" value="(1, 1)" style="text;html=1;align=center;verticalAlign=middle;whiteSpace=wrap;rounded=0;" parent="1" vertex="1">
          <mxGeometry x="250" y="729.88" width="60" height="30" as="geometry" />
        </mxCell>
        <mxCell id="ygH41liseYAadWKIoqiI-53" value="(0, N)" style="text;html=1;align=center;verticalAlign=middle;whiteSpace=wrap;rounded=0;" parent="1" vertex="1">
          <mxGeometry x="345" y="751" width="60" height="30" as="geometry" />
        </mxCell>
        <mxCell id="ygH41liseYAadWKIoqiI-54" value="(0, 1)" style="text;html=1;align=center;verticalAlign=middle;whiteSpace=wrap;rounded=0;" parent="1" vertex="1">
          <mxGeometry x="593" y="751" width="60" height="30" as="geometry" />
        </mxCell>
        <mxCell id="ygH41liseYAadWKIoqiI-55" value="(1, 1)" style="text;html=1;align=center;verticalAlign=middle;whiteSpace=wrap;rounded=0;" parent="1" vertex="1">
          <mxGeometry x="690" y="723.75" width="60" height="30" as="geometry" />
        </mxCell>
        <mxCell id="ygH41liseYAadWKIoqiI-56" value="(1, N)" style="text;html=1;align=center;verticalAlign=middle;whiteSpace=wrap;rounded=0;" parent="1" vertex="1">
          <mxGeometry x="760" y="668.88" width="60" height="30" as="geometry" />
        </mxCell>
        <mxCell id="ygH41liseYAadWKIoqiI-57" value="(1, 3)" style="text;html=1;align=center;verticalAlign=middle;whiteSpace=wrap;rounded=0;" parent="1" vertex="1">
          <mxGeometry x="750" y="779" width="60" height="30" as="geometry" />
        </mxCell>
        <mxCell id="ygH41liseYAadWKIoqiI-58" value="(1, 3)" style="text;html=1;align=center;verticalAlign=middle;whiteSpace=wrap;rounded=0;" parent="1" vertex="1">
          <mxGeometry x="750" y="744" width="60" height="30" as="geometry" />
        </mxCell>
        <mxCell id="ygH41liseYAadWKIoqiI-59" value="(0, N)" style="text;html=1;align=center;verticalAlign=middle;whiteSpace=wrap;rounded=0;" parent="1" vertex="1">
          <mxGeometry x="539" y="550" width="60" height="30" as="geometry" />
        </mxCell>
        <mxCell id="ygH41liseYAadWKIoqiI-60" value="(1, 1)" style="text;html=1;align=center;verticalAlign=middle;whiteSpace=wrap;rounded=0;" parent="1" vertex="1">
          <mxGeometry x="573.5" y="703.88" width="60" height="30" as="geometry" />
        </mxCell>
        <mxCell id="ygH41liseYAadWKIoqiI-62" value="(1, 1)" style="text;html=1;align=center;verticalAlign=middle;whiteSpace=wrap;rounded=0;" parent="1" vertex="1">
          <mxGeometry x="690" y="803.5" width="60" height="30" as="geometry" />
        </mxCell>
        <mxCell id="ygH41liseYAadWKIoqiI-70" value="(1, 1)" style="text;html=1;align=center;verticalAlign=middle;whiteSpace=wrap;rounded=0;" parent="1" vertex="1">
          <mxGeometry x="-257" y="1134" width="60" height="30" as="geometry" />
        </mxCell>
        <mxCell id="ygH41liseYAadWKIoqiI-71" value="(1, N)" style="text;html=1;align=center;verticalAlign=middle;whiteSpace=wrap;rounded=0;" parent="1" vertex="1">
          <mxGeometry x="-632" y="1129" width="60" height="30" as="geometry" />
        </mxCell>
        <mxCell id="ygH41liseYAadWKIoqiI-72" value="(1, 1)" style="text;html=1;align=center;verticalAlign=middle;whiteSpace=wrap;rounded=0;" parent="1" vertex="1">
          <mxGeometry x="-30" y="1134" width="40" height="30" as="geometry" />
        </mxCell>
        <mxCell id="ygH41liseYAadWKIoqiI-74" value="(1, N)" style="text;html=1;align=center;verticalAlign=middle;whiteSpace=wrap;rounded=0;" parent="1" vertex="1">
          <mxGeometry x="-437.5" y="1129" width="60" height="30" as="geometry" />
        </mxCell>
        <mxCell id="ygH41liseYAadWKIoqiI-76" value="(1, 1)" style="text;html=1;align=center;verticalAlign=middle;whiteSpace=wrap;rounded=0;" parent="1" vertex="1">
          <mxGeometry x="-653.99" y="1029.5" width="60" height="30" as="geometry" />
        </mxCell>
        <mxCell id="ygH41liseYAadWKIoqiI-77" value="(2, N)" style="text;html=1;align=center;verticalAlign=middle;whiteSpace=wrap;rounded=0;" parent="1" vertex="1">
          <mxGeometry x="-384" y="1031" width="60" height="30" as="geometry" />
        </mxCell>
        <mxCell id="ygH41liseYAadWKIoqiI-79" value="(0, N)" style="text;html=1;align=center;verticalAlign=middle;whiteSpace=wrap;rounded=0;" parent="1" vertex="1">
          <mxGeometry x="-688" y="456.88" width="60" height="30" as="geometry" />
        </mxCell>
        <mxCell id="ygH41liseYAadWKIoqiI-80" value="(1, 1)" style="text;html=1;align=center;verticalAlign=middle;whiteSpace=wrap;rounded=0;" parent="1" vertex="1">
          <mxGeometry x="-688" y="688" width="60" height="30" as="geometry" />
        </mxCell>
        <mxCell id="ygH41liseYAadWKIoqiI-81" value="(1, 1)" style="text;html=1;align=center;verticalAlign=middle;whiteSpace=wrap;rounded=0;" parent="1" vertex="1">
          <mxGeometry x="-460" y="887" width="37.5" height="30" as="geometry" />
        </mxCell>
        <mxCell id="ygH41liseYAadWKIoqiI-82" value="(1, 1)" style="text;html=1;align=center;verticalAlign=middle;whiteSpace=wrap;rounded=0;" parent="1" vertex="1">
          <mxGeometry x="22.74" y="650" width="28.75" height="18.88" as="geometry" />
        </mxCell>
        <mxCell id="ygH41liseYAadWKIoqiI-83" value="(1, 1)" style="text;html=1;align=center;verticalAlign=middle;whiteSpace=wrap;rounded=0;" parent="1" vertex="1">
          <mxGeometry x="-348.62" y="520" width="60" height="30" as="geometry" />
        </mxCell>
        <mxCell id="ygH41liseYAadWKIoqiI-84" value="(0, N)" style="text;html=1;align=center;verticalAlign=middle;whiteSpace=wrap;rounded=0;" parent="1" vertex="1">
          <mxGeometry x="-478" y="512.89" width="60" height="30" as="geometry" />
        </mxCell>
        <mxCell id="ygH41liseYAadWKIoqiI-85" value="(1, 1)" style="text;html=1;align=center;verticalAlign=middle;whiteSpace=wrap;rounded=0;" parent="1" vertex="1">
          <mxGeometry x="-632" y="287" width="60" height="30" as="geometry" />
        </mxCell>
        <mxCell id="ygH41liseYAadWKIoqiI-86" value="(0, N)" style="text;html=1;align=center;verticalAlign=middle;whiteSpace=wrap;rounded=0;" parent="1" vertex="1">
          <mxGeometry x="-520" y="370" width="60" height="30" as="geometry" />
        </mxCell>
        <mxCell id="BWMztGNEZ59WZQLGVLkd-1" value="Dono" style="ellipse;whiteSpace=wrap;html=1;align=center;" parent="1" vertex="1">
          <mxGeometry x="110" y="-281.12" width="100" height="40" as="geometry" />
        </mxCell>
        <mxCell id="BWMztGNEZ59WZQLGVLkd-4" value="&lt;span style=&quot;border-bottom: 1px dotted&quot;&gt;ID-Inst-Estab&lt;/span&gt;" style="ellipse;whiteSpace=wrap;html=1;align=center;" parent="1" vertex="1">
          <mxGeometry x="553" y="178.75" width="100" height="40" as="geometry" />
        </mxCell>
        <mxCell id="BWMztGNEZ59WZQLGVLkd-5" value="Dono" style="ellipse;whiteSpace=wrap;html=1;align=center;" parent="1" vertex="1">
          <mxGeometry x="553" y="138.75" width="100" height="40" as="geometry" />
        </mxCell>
        <mxCell id="BWMztGNEZ59WZQLGVLkd-6" value="Login" style="ellipse;whiteSpace=wrap;html=1;align=center;" parent="1" vertex="1">
          <mxGeometry x="-55.99999999999999" y="768.2" width="100" height="40" as="geometry" />
        </mxCell>
        <mxCell id="BWMztGNEZ59WZQLGVLkd-7" value="Senha" style="ellipse;whiteSpace=wrap;html=1;align=center;" parent="1" vertex="1">
          <mxGeometry x="-53.75000000000001" y="810.08" width="100" height="40" as="geometry" />
        </mxCell>
        <mxCell id="BWMztGNEZ59WZQLGVLkd-9" value="Missão" style="ellipse;whiteSpace=wrap;html=1;align=center;" parent="1" vertex="1">
          <mxGeometry x="324" y="630" width="100" height="40" as="geometry" />
        </mxCell>
        <mxCell id="8d8oYZHIAon7UINlBn4N-1" value="História" style="ellipse;whiteSpace=wrap;html=1;align=center;" parent="1" vertex="1">
          <mxGeometry x="519" y="1003.5" width="100" height="40" as="geometry" />
        </mxCell>
        <mxCell id="8d8oYZHIAon7UINlBn4N-2" value="Região" style="ellipse;whiteSpace=wrap;html=1;align=center;" parent="1" vertex="1">
          <mxGeometry x="519" y="1043.82" width="100" height="40" as="geometry" />
        </mxCell>
        <mxCell id="8d8oYZHIAon7UINlBn4N-3" value="Data" style="ellipse;whiteSpace=wrap;html=1;align=center;" parent="1" vertex="1">
          <mxGeometry x="396" y="820.7" width="100" height="40" as="geometry" />
        </mxCell>
        <mxCell id="8d8oYZHIAon7UINlBn4N-4" value="Retorno Total em XP" style="ellipse;whiteSpace=wrap;html=1;align=center;" parent="1" vertex="1">
          <mxGeometry x="396" y="860.7" width="100" height="40" as="geometry" />
        </mxCell>
        <mxCell id="8d8oYZHIAon7UINlBn4N-5" value="Retorno Total em Dinheiro" style="ellipse;whiteSpace=wrap;html=1;align=center;" parent="1" vertex="1">
          <mxGeometry x="394" y="900.7" width="100" height="40" as="geometry" />
        </mxCell>
        <mxCell id="8d8oYZHIAon7UINlBn4N-6" value="" style="endArrow=none;html=1;rounded=0;exitX=0.5;exitY=0;exitDx=0;exitDy=0;entryX=0.5;entryY=1;entryDx=0;entryDy=0;" parent="1" source="8d8oYZHIAon7UINlBn4N-3" target="y91Bqe_7xXxEDmseq83t-315" edge="1">
          <mxGeometry relative="1" as="geometry">
            <mxPoint x="578" y="854" as="sourcePoint" />
            <mxPoint x="663" y="806" as="targetPoint" />
          </mxGeometry>
        </mxCell>
        <mxCell id="8d8oYZHIAon7UINlBn4N-7" value="&lt;div&gt;Data de Confronto&lt;/div&gt;" style="ellipse;whiteSpace=wrap;html=1;align=center;" parent="1" vertex="1">
          <mxGeometry x="-1306" y="1010" width="100" height="40" as="geometry" />
        </mxCell>
        <mxCell id="8d8oYZHIAon7UINlBn4N-8" value="&lt;div&gt;Gangue Perdedora&lt;/div&gt;" style="ellipse;whiteSpace=wrap;html=1;align=center;" parent="1" vertex="1">
          <mxGeometry x="-1306" y="1050" width="100" height="40" as="geometry" />
        </mxCell>
        <mxCell id="8d8oYZHIAon7UINlBn4N-9" value="&lt;div&gt;Gangue Vencedora&lt;/div&gt;" style="ellipse;whiteSpace=wrap;html=1;align=center;" parent="1" vertex="1">
          <mxGeometry x="-1306" y="1090" width="100" height="40" as="geometry" />
        </mxCell>
        <mxCell id="8d8oYZHIAon7UINlBn4N-10" value="" style="endArrow=none;html=1;rounded=0;exitX=1;exitY=0.5;exitDx=0;exitDy=0;entryX=0;entryY=0.5;entryDx=0;entryDy=0;" parent="1" source="8d8oYZHIAon7UINlBn4N-7" target="edTjm4dISCqz6r1TiSTo-88" edge="1">
          <mxGeometry relative="1" as="geometry">
            <mxPoint x="-896" y="1048" as="sourcePoint" />
            <mxPoint x="-842" y="1000" as="targetPoint" />
          </mxGeometry>
        </mxCell>
        <mxCell id="96hDflJbBVRzjfYR2Nu9-1" value="Descrição" style="ellipse;whiteSpace=wrap;html=1;align=center;" parent="1" vertex="1">
          <mxGeometry x="-770" y="121" width="100" height="40" as="geometry" />
        </mxCell>
        <mxCell id="96hDflJbBVRzjfYR2Nu9-2" value="Total de Itens" style="ellipse;whiteSpace=wrap;html=1;align=center;dashed=1;" parent="1" vertex="1">
          <mxGeometry x="-797.75" y="923.81" width="100" height="40" as="geometry" />
        </mxCell>
        <mxCell id="B25ZfjddNhXgLFYWlgMK-3" value="Arma" style="whiteSpace=wrap;html=1;align=center;" parent="1" vertex="1">
          <mxGeometry x="-1168" y="427" width="100" height="40" as="geometry" />
        </mxCell>
        <mxCell id="B25ZfjddNhXgLFYWlgMK-8" value="" style="endArrow=none;html=1;rounded=0;exitX=-0.001;exitY=0.556;exitDx=0;exitDy=0;entryX=1;entryY=0.5;entryDx=0;entryDy=0;exitPerimeter=0;" parent="1" source="y91Bqe_7xXxEDmseq83t-297" target="B25ZfjddNhXgLFYWlgMK-3" edge="1">
          <mxGeometry relative="1" as="geometry">
            <mxPoint x="-878.0274999999999" y="316.76" as="sourcePoint" />
            <mxPoint x="-1066.3" y="446.96000000000004" as="targetPoint" />
            <Array as="points">
              <mxPoint x="-918" y="316" />
              <mxPoint x="-918" y="446" />
            </Array>
          </mxGeometry>
        </mxCell>
        <mxCell id="B25ZfjddNhXgLFYWlgMK-19" value="" style="endArrow=none;html=1;rounded=0;exitX=0;exitY=1;exitDx=0;exitDy=0;entryX=0.5;entryY=0;entryDx=0;entryDy=0;" parent="1" source="B25ZfjddNhXgLFYWlgMK-3" target="B25ZfjddNhXgLFYWlgMK-15" edge="1">
          <mxGeometry relative="1" as="geometry">
            <mxPoint x="-1600" y="564" as="sourcePoint" />
            <mxPoint x="-1240" y="538.9999999999998" as="targetPoint" />
          </mxGeometry>
        </mxCell>
        <mxCell id="B25ZfjddNhXgLFYWlgMK-29" value="Arma Melee" style="whiteSpace=wrap;html=1;" parent="1" vertex="1">
          <mxGeometry x="-1623" y="502" width="90" height="39" as="geometry" />
        </mxCell>
        <mxCell id="B25ZfjddNhXgLFYWlgMK-30" value="" style="triangle;whiteSpace=wrap;html=1;direction=north;rotation=90;" parent="1" vertex="1">
          <mxGeometry x="-1342.9999999999998" y="433.24" width="27.5" height="27.5" as="geometry" />
        </mxCell>
        <mxCell id="B25ZfjddNhXgLFYWlgMK-31" value="Arma de Fogo" style="whiteSpace=wrap;html=1;" parent="1" vertex="1">
          <mxGeometry x="-1623" y="358.75" width="90" height="39" as="geometry" />
        </mxCell>
        <mxCell id="B25ZfjddNhXgLFYWlgMK-32" value="" style="endArrow=none;html=1;rounded=0;exitX=0.996;exitY=0.627;exitDx=0;exitDy=0;entryX=0;entryY=0.187;entryDx=0;entryDy=0;entryPerimeter=0;exitPerimeter=0;" parent="1" source="B25ZfjddNhXgLFYWlgMK-31" target="B25ZfjddNhXgLFYWlgMK-30" edge="1">
          <mxGeometry relative="1" as="geometry">
            <mxPoint x="-1533" y="328.25" as="sourcePoint" />
            <mxPoint x="-1343.1374999999998" y="438.18499999999995" as="targetPoint" />
            <Array as="points">
              <mxPoint x="-1383" y="383" />
              <mxPoint x="-1383" y="437.99" />
            </Array>
          </mxGeometry>
        </mxCell>
        <mxCell id="B25ZfjddNhXgLFYWlgMK-33" value="" style="endArrow=none;html=1;rounded=0;entryX=-0.001;entryY=0.655;entryDx=0;entryDy=0;exitX=1;exitY=0.25;exitDx=0;exitDy=0;entryPerimeter=0;" parent="1" source="B25ZfjddNhXgLFYWlgMK-29" target="B25ZfjddNhXgLFYWlgMK-30" edge="1">
          <mxGeometry relative="1" as="geometry">
            <mxPoint x="-1563" y="465.99" as="sourcePoint" />
            <mxPoint x="-1403" y="465.99" as="targetPoint" />
            <Array as="points">
              <mxPoint x="-1384" y="512" />
              <mxPoint x="-1384" y="452" />
            </Array>
          </mxGeometry>
        </mxCell>
        <mxCell id="B25ZfjddNhXgLFYWlgMK-34" value="(T, E)" style="text;strokeColor=none;fillColor=none;spacingLeft=4;spacingRight=4;overflow=hidden;rotatable=0;points=[[0,0.5],[1,0.5]];portConstraint=eastwest;fontSize=12;whiteSpace=wrap;html=1;" parent="1" vertex="1">
          <mxGeometry x="-1334" y="416.74" width="40" height="30" as="geometry" />
        </mxCell>
        <mxCell id="B25ZfjddNhXgLFYWlgMK-38" value="Velocidade Reload" style="ellipse;whiteSpace=wrap;html=1;align=center;" parent="1" vertex="1">
          <mxGeometry x="-1744" y="438.76" width="100" height="40" as="geometry" />
        </mxCell>
        <mxCell id="B25ZfjddNhXgLFYWlgMK-39" value="Velocidade Disparo" style="ellipse;whiteSpace=wrap;html=1;align=center;" parent="1" vertex="1">
          <mxGeometry x="-1744" y="398.76" width="100" height="40" as="geometry" />
        </mxCell>
        <mxCell id="B25ZfjddNhXgLFYWlgMK-40" value="" style="endArrow=none;html=1;rounded=0;entryX=0;entryY=0.5;entryDx=0;entryDy=0;exitX=0.5;exitY=0;exitDx=0;exitDy=0;" parent="1" source="B25ZfjddNhXgLFYWlgMK-39" target="B25ZfjddNhXgLFYWlgMK-31" edge="1">
          <mxGeometry relative="1" as="geometry">
            <mxPoint x="-1577" y="398.63" as="sourcePoint" />
            <mxPoint x="-1677" y="365.88" as="targetPoint" />
          </mxGeometry>
        </mxCell>
        <mxCell id="B25ZfjddNhXgLFYWlgMK-41" value="Nível de afiação" style="ellipse;whiteSpace=wrap;html=1;align=center;" parent="1" vertex="1">
          <mxGeometry x="-1744" y="542.89" width="100" height="40" as="geometry" />
        </mxCell>
        <mxCell id="B25ZfjddNhXgLFYWlgMK-42" value="" style="endArrow=none;html=1;rounded=0;exitX=0.5;exitY=0;exitDx=0;exitDy=0;entryX=0;entryY=0.5;entryDx=0;entryDy=0;" parent="1" source="B25ZfjddNhXgLFYWlgMK-41" target="B25ZfjddNhXgLFYWlgMK-29" edge="1">
          <mxGeometry relative="1" as="geometry">
            <mxPoint x="-1801" y="461.5" as="sourcePoint" />
            <mxPoint x="-1623" y="409.24" as="targetPoint" />
          </mxGeometry>
        </mxCell>
        <mxCell id="B25ZfjddNhXgLFYWlgMK-15" value="Dano por Ataque" style="ellipse;whiteSpace=wrap;html=1;align=center;" parent="1" vertex="1">
          <mxGeometry x="-1300" y="502.89" width="100" height="40" as="geometry" />
        </mxCell>
        <mxCell id="B25ZfjddNhXgLFYWlgMK-44" value="" style="endArrow=none;html=1;rounded=0;entryX=1;entryY=0.5;entryDx=0;entryDy=0;exitX=0;exitY=0.5;exitDx=0;exitDy=0;" parent="1" source="B25ZfjddNhXgLFYWlgMK-3" target="B25ZfjddNhXgLFYWlgMK-30" edge="1">
          <mxGeometry relative="1" as="geometry">
            <mxPoint x="-1640" y="600" as="sourcePoint" />
            <mxPoint x="-1480" y="600" as="targetPoint" />
          </mxGeometry>
        </mxCell>
        <mxCell id="B25ZfjddNhXgLFYWlgMK-45" value="Preço" style="ellipse;whiteSpace=wrap;html=1;align=center;" parent="1" vertex="1">
          <mxGeometry x="-770" y="40" width="100" height="40" as="geometry" />
        </mxCell>
        <mxCell id="B25ZfjddNhXgLFYWlgMK-46" value="Peso" style="ellipse;whiteSpace=wrap;html=1;align=center;" parent="1" vertex="1">
          <mxGeometry x="-770" y="80.5" width="100" height="40" as="geometry" />
        </mxCell>
        <mxCell id="B25ZfjddNhXgLFYWlgMK-47" value="Durabilidade&lt;div&gt;Máxima&lt;/div&gt;" style="ellipse;whiteSpace=wrap;html=1;align=center;" parent="1" vertex="1">
          <mxGeometry x="-769" width="100" height="40" as="geometry" />
        </mxCell>
        <mxCell id="B25ZfjddNhXgLFYWlgMK-48" value="Durabilidade&lt;div&gt;Atual&lt;/div&gt;" style="ellipse;whiteSpace=wrap;html=1;align=center;" parent="1" vertex="1">
          <mxGeometry x="-824" y="380.25" width="100" height="40" as="geometry" />
        </mxCell>
        <mxCell id="B25ZfjddNhXgLFYWlgMK-50" value="vencedora" style="text;strokeColor=none;fillColor=none;spacingLeft=4;spacingRight=4;overflow=hidden;rotatable=0;points=[[0,0.5],[1,0.5]];portConstraint=eastwest;fontSize=12;whiteSpace=wrap;html=1;" parent="1" vertex="1">
          <mxGeometry x="-1068.5" y="1024" width="64.5" height="30" as="geometry" />
        </mxCell>
        <mxCell id="B25ZfjddNhXgLFYWlgMK-52" value="perdedora" style="text;strokeColor=none;fillColor=none;spacingLeft=4;spacingRight=4;overflow=hidden;rotatable=0;points=[[0,0.5],[1,0.5]];portConstraint=eastwest;fontSize=12;whiteSpace=wrap;html=1;" parent="1" vertex="1">
          <mxGeometry x="-1067.5" y="1068" width="64.5" height="30" as="geometry" />
        </mxCell>
        <mxCell id="Jj1MBqS-Lkx3nrxVYfnj-12" value="Projétil" style="shape=ext;margin=3;double=1;whiteSpace=wrap;html=1;align=center;" parent="1" vertex="1">
          <mxGeometry x="-965.2600000000002" y="673.13" width="100" height="40" as="geometry" />
        </mxCell>
        <mxCell id="Jj1MBqS-Lkx3nrxVYfnj-13" value="dispara" style="shape=rhombus;double=1;perimeter=rhombusPerimeter;whiteSpace=wrap;html=1;align=center;" parent="1" vertex="1">
          <mxGeometry x="-977.2400000000002" y="565.13" width="123.49" height="60" as="geometry" />
        </mxCell>
        <mxCell id="Jj1MBqS-Lkx3nrxVYfnj-14" value="" style="shape=link;html=1;rounded=0;exitX=0.5;exitY=1;exitDx=0;exitDy=0;entryX=0.5;entryY=0;entryDx=0;entryDy=0;" parent="1" source="Jj1MBqS-Lkx3nrxVYfnj-13" target="Jj1MBqS-Lkx3nrxVYfnj-12" edge="1">
          <mxGeometry relative="1" as="geometry">
            <mxPoint x="-2278.75" y="709.63" as="sourcePoint" />
            <mxPoint x="-2118.75" y="709.63" as="targetPoint" />
          </mxGeometry>
        </mxCell>
        <mxCell id="Jj1MBqS-Lkx3nrxVYfnj-16" value="Pos x" style="ellipse;whiteSpace=wrap;html=1;align=center;" parent="1" vertex="1">
          <mxGeometry x="-1156.0000000000002" y="612.74" width="100" height="40" as="geometry" />
        </mxCell>
        <mxCell id="Jj1MBqS-Lkx3nrxVYfnj-17" value="Pos y" style="ellipse;whiteSpace=wrap;html=1;align=center;" parent="1" vertex="1">
          <mxGeometry x="-1156.0000000000002" y="652.74" width="100" height="40" as="geometry" />
        </mxCell>
        <mxCell id="Jj1MBqS-Lkx3nrxVYfnj-18" value="Pos z" style="ellipse;whiteSpace=wrap;html=1;align=center;" parent="1" vertex="1">
          <mxGeometry x="-1155.0000000000002" y="692.74" width="100" height="40" as="geometry" />
        </mxCell>
        <mxCell id="Jj1MBqS-Lkx3nrxVYfnj-19" value="Colidiu" style="ellipse;whiteSpace=wrap;html=1;align=center;" parent="1" vertex="1">
          <mxGeometry x="-1156.0000000000002" y="732.74" width="100" height="40" as="geometry" />
        </mxCell>
        <mxCell id="Jj1MBqS-Lkx3nrxVYfnj-20" value="" style="endArrow=none;html=1;rounded=0;exitX=0;exitY=0;exitDx=0;exitDy=0;entryX=1;entryY=0.5;entryDx=0;entryDy=0;" parent="1" source="Jj1MBqS-Lkx3nrxVYfnj-12" target="Jj1MBqS-Lkx3nrxVYfnj-22" edge="1">
          <mxGeometry relative="1" as="geometry">
            <mxPoint x="-1994.7600000000002" y="1068.63" as="sourcePoint" />
            <mxPoint x="-1834.7600000000002" y="1068.63" as="targetPoint" />
          </mxGeometry>
        </mxCell>
        <mxCell id="Jj1MBqS-Lkx3nrxVYfnj-21" value="Velocidade" style="ellipse;whiteSpace=wrap;html=1;align=center;" parent="1" vertex="1">
          <mxGeometry x="-1158.0000000000002" y="772.74" width="100" height="40" as="geometry" />
        </mxCell>
        <mxCell id="Jj1MBqS-Lkx3nrxVYfnj-22" value="&lt;span style=&quot;border-bottom: 1px dotted&quot;&gt;ID-Projétil&lt;/span&gt;" style="ellipse;whiteSpace=wrap;html=1;align=center;" parent="1" vertex="1">
          <mxGeometry x="-1158.0000000000002" y="571.88" width="100" height="40" as="geometry" />
        </mxCell>
        <mxCell id="Jj1MBqS-Lkx3nrxVYfnj-23" value="(0, N)" style="text;html=1;align=center;verticalAlign=middle;whiteSpace=wrap;rounded=0;" parent="1" vertex="1">
          <mxGeometry x="-913.7500000000002" y="635.01" width="60" height="30" as="geometry" />
        </mxCell>
        <mxCell id="Jj1MBqS-Lkx3nrxVYfnj-25" value="" style="endArrow=none;html=1;rounded=0;exitX=0;exitY=0.25;exitDx=0;exitDy=0;entryX=0.5;entryY=0;entryDx=0;entryDy=0;" parent="1" source="y91Bqe_7xXxEDmseq83t-142" target="Jj1MBqS-Lkx3nrxVYfnj-13" edge="1">
          <mxGeometry relative="1" as="geometry">
            <mxPoint x="-880" y="600" as="sourcePoint" />
            <mxPoint x="-720" y="600" as="targetPoint" />
            <Array as="points">
              <mxPoint x="-710" y="430" />
              <mxPoint x="-710" y="480" />
              <mxPoint x="-915" y="480" />
            </Array>
          </mxGeometry>
        </mxCell>
        <mxCell id="Jj1MBqS-Lkx3nrxVYfnj-26" value="(1, 1)" style="text;html=1;align=center;verticalAlign=middle;whiteSpace=wrap;rounded=0;" parent="1" vertex="1">
          <mxGeometry x="-853.75" y="455" width="60" height="30" as="geometry" />
        </mxCell>
        <mxCell id="Jj1MBqS-Lkx3nrxVYfnj-27" value="&lt;span style=&quot;background-color: initial;&quot;&gt;Apenas se a instância de item for instância de arma&lt;/span&gt;" style="shape=note;size=20;whiteSpace=wrap;html=1;" parent="1" vertex="1">
          <mxGeometry x="-835" y="559.88" width="65" height="113.25" as="geometry" />
        </mxCell>
        <mxCell id="Jj1MBqS-Lkx3nrxVYfnj-28" value="usa" style="shape=rhombus;perimeter=rhombusPerimeter;whiteSpace=wrap;html=1;align=center;" parent="1" vertex="1">
          <mxGeometry x="-451.87" y="467.88" width="116.25" height="60" as="geometry" />
        </mxCell>
        <mxCell id="Jj1MBqS-Lkx3nrxVYfnj-29" value="" style="endArrow=none;html=1;rounded=0;exitX=0.5;exitY=0;exitDx=0;exitDy=0;entryX=1;entryY=0.5;entryDx=0;entryDy=0;" parent="1" source="Jj1MBqS-Lkx3nrxVYfnj-28" target="y91Bqe_7xXxEDmseq83t-142" edge="1">
          <mxGeometry relative="1" as="geometry">
            <mxPoint x="-552" y="866" as="sourcePoint" />
            <mxPoint x="-552" y="471" as="targetPoint" />
            <Array as="points">
              <mxPoint x="-394" y="440" />
            </Array>
          </mxGeometry>
        </mxCell>
        <mxCell id="Jj1MBqS-Lkx3nrxVYfnj-30" value="" style="endArrow=none;html=1;rounded=0;entryX=1;entryY=0.5;entryDx=0;entryDy=0;exitX=0;exitY=0.25;exitDx=0;exitDy=0;" parent="1" source="edTjm4dISCqz6r1TiSTo-55" target="Jj1MBqS-Lkx3nrxVYfnj-28" edge="1">
          <mxGeometry relative="1" as="geometry">
            <mxPoint x="-150" y="920" as="sourcePoint" />
            <mxPoint x="-494" y="896" as="targetPoint" />
            <Array as="points" />
          </mxGeometry>
        </mxCell>
        <mxCell id="Jj1MBqS-Lkx3nrxVYfnj-31" value="(1, 1)" style="text;html=1;align=center;verticalAlign=middle;whiteSpace=wrap;rounded=0;" parent="1" vertex="1">
          <mxGeometry x="-294" y="476.88" width="29" height="22.89" as="geometry" />
        </mxCell>
        <mxCell id="Jj1MBqS-Lkx3nrxVYfnj-32" value="(1, 1)" style="text;html=1;align=center;verticalAlign=middle;whiteSpace=wrap;rounded=0;" parent="1" vertex="1">
          <mxGeometry x="-440" y="416.74" width="60" height="30" as="geometry" />
        </mxCell>
        <mxCell id="baOImdIQTPnPfjyjiCg7-1" value="&lt;span style=&quot;background-color: initial;&quot;&gt;Apenas se a instância de animal for do tipo Amigável&lt;/span&gt;" style="shape=note;size=20;whiteSpace=wrap;html=1;" parent="1" vertex="1">
          <mxGeometry x="-11.75" y="-4.380000000000001" width="65" height="113.25" as="geometry" />
        </mxCell>
        <mxCell id="baOImdIQTPnPfjyjiCg7-2" value="&lt;span style=&quot;background-color: initial;&quot;&gt;O líder só pode ser uma instância de NPC&lt;/span&gt;" style="shape=note;size=20;whiteSpace=wrap;html=1;" parent="1" vertex="1">
          <mxGeometry x="-1010" y="810.5" width="90" height="113.25" as="geometry" />
        </mxCell>
        <mxCell id="GcbjipwZdxQqbnMk5Tjc-1" value="Inventário" style="whiteSpace=wrap;html=1;align=center;" parent="1" vertex="1">
          <mxGeometry x="-660" y="955.75" width="120" height="40" as="geometry" />
        </mxCell>
        <mxCell id="GcbjipwZdxQqbnMk5Tjc-2" value="" style="endArrow=none;html=1;rounded=0;exitX=0.5;exitY=0;exitDx=0;exitDy=0;entryX=0;entryY=0.5;entryDx=0;entryDy=0;" parent="1" source="GcbjipwZdxQqbnMk5Tjc-1" target="y91Bqe_7xXxEDmseq83t-135" edge="1">
          <mxGeometry relative="1" as="geometry">
            <mxPoint x="-500" y="1010" as="sourcePoint" />
            <mxPoint x="-340" y="1010" as="targetPoint" />
            <Array as="points">
              <mxPoint x="-600" y="910" />
            </Array>
          </mxGeometry>
        </mxCell>
        <mxCell id="GcbjipwZdxQqbnMk5Tjc-3" value="" style="endArrow=none;html=1;rounded=0;entryX=0.5;entryY=0;entryDx=0;entryDy=0;exitX=0.264;exitY=1.007;exitDx=0;exitDy=0;jumpStyle=arc;exitPerimeter=0;" parent="1" source="y91Bqe_7xXxEDmseq83t-105" target="GcbjipwZdxQqbnMk5Tjc-6" edge="1">
          <mxGeometry relative="1" as="geometry">
            <mxPoint x="180" y="510" as="sourcePoint" />
            <mxPoint x="210" y="930" as="targetPoint" />
            <Array as="points">
              <mxPoint x="240" y="570" />
              <mxPoint x="200" y="570" />
            </Array>
          </mxGeometry>
        </mxCell>
        <mxCell id="GcbjipwZdxQqbnMk5Tjc-5" value="" style="endArrow=none;html=1;rounded=0;entryX=1;entryY=0.5;entryDx=0;entryDy=0;exitX=0.5;exitY=1;exitDx=0;exitDy=0;jumpStyle=arc;" parent="1" source="edTjm4dISCqz6r1TiSTo-55" target="y91Bqe_7xXxEDmseq83t-135" edge="1">
          <mxGeometry relative="1" as="geometry">
            <mxPoint x="-430" y="980" as="sourcePoint" />
            <mxPoint x="-270" y="980" as="targetPoint" />
            <Array as="points">
              <mxPoint x="60" y="870" />
              <mxPoint x="-90" y="870" />
              <mxPoint x="-90" y="910" />
            </Array>
          </mxGeometry>
        </mxCell>
        <mxCell id="GcbjipwZdxQqbnMk5Tjc-6" value="possui" style="shape=rhombus;perimeter=rhombusPerimeter;whiteSpace=wrap;html=1;align=center;" parent="1" vertex="1">
          <mxGeometry x="142" y="954.5" width="120" height="60" as="geometry" />
        </mxCell>
        <mxCell id="GcbjipwZdxQqbnMk5Tjc-8" value="" style="endArrow=none;html=1;rounded=0;exitX=1;exitY=0.75;exitDx=0;exitDy=0;entryX=0;entryY=0.5;entryDx=0;entryDy=0;jumpStyle=arc;" parent="1" source="GcbjipwZdxQqbnMk5Tjc-1" target="GcbjipwZdxQqbnMk5Tjc-6" edge="1">
          <mxGeometry relative="1" as="geometry">
            <mxPoint x="213" y="1100" as="sourcePoint" />
            <mxPoint x="373" y="1100" as="targetPoint" />
          </mxGeometry>
        </mxCell>
        <mxCell id="GcbjipwZdxQqbnMk5Tjc-9" value="(1, 1)" style="text;html=1;align=center;verticalAlign=middle;whiteSpace=wrap;rounded=0;" parent="1" vertex="1">
          <mxGeometry x="-393.5" y="960.5" width="37.5" height="30" as="geometry" />
        </mxCell>
        <mxCell id="GcbjipwZdxQqbnMk5Tjc-10" value="(1, 1)" style="text;html=1;align=center;verticalAlign=middle;whiteSpace=wrap;rounded=0;" parent="1" vertex="1">
          <mxGeometry x="163.5" y="620" width="37.5" height="21" as="geometry" />
        </mxCell>
        <mxCell id="GcbjipwZdxQqbnMk5Tjc-11" value="coleta" style="shape=rhombus;perimeter=rhombusPerimeter;whiteSpace=wrap;html=1;align=center;" parent="1" vertex="1">
          <mxGeometry x="-343.13" y="641" width="116.25" height="60" as="geometry" />
        </mxCell>
        <mxCell id="GcbjipwZdxQqbnMk5Tjc-12" value="usa" style="shape=rhombus;perimeter=rhombusPerimeter;whiteSpace=wrap;html=1;align=center;" parent="1" vertex="1">
          <mxGeometry x="-406.25" y="596" width="116.25" height="60" as="geometry" />
        </mxCell>
        <mxCell id="GcbjipwZdxQqbnMk5Tjc-14" value="" style="endArrow=none;html=1;rounded=0;entryX=0;entryY=0.75;entryDx=0;entryDy=0;exitX=1;exitY=0.5;exitDx=0;exitDy=0;jumpStyle=arc;" parent="1" source="GcbjipwZdxQqbnMk5Tjc-11" target="y91Bqe_7xXxEDmseq83t-105" edge="1">
          <mxGeometry relative="1" as="geometry">
            <mxPoint x="-300" y="630" as="sourcePoint" />
            <mxPoint x="-140" y="630" as="targetPoint" />
            <Array as="points">
              <mxPoint x="-160" y="671" />
              <mxPoint x="-161" y="600" />
              <mxPoint x="180" y="600" />
              <mxPoint x="180" y="517" />
            </Array>
          </mxGeometry>
        </mxCell>
        <mxCell id="GcbjipwZdxQqbnMk5Tjc-16" value="" style="endArrow=none;html=1;rounded=0;entryX=1;entryY=0.5;entryDx=0;entryDy=0;exitX=0;exitY=0.5;exitDx=0;exitDy=0;jumpStyle=arc;" parent="1" source="y91Bqe_7xXxEDmseq83t-105" target="GcbjipwZdxQqbnMk5Tjc-12" edge="1">
          <mxGeometry relative="1" as="geometry">
            <mxPoint x="-430" y="720" as="sourcePoint" />
            <mxPoint x="-270" y="720" as="targetPoint" />
            <Array as="points">
              <mxPoint x="170" y="507" />
              <mxPoint x="170" y="580" />
              <mxPoint x="-170" y="580" />
              <mxPoint x="-170" y="626" />
            </Array>
          </mxGeometry>
        </mxCell>
        <mxCell id="GcbjipwZdxQqbnMk5Tjc-17" value="" style="endArrow=none;html=1;rounded=0;exitX=0.5;exitY=1;exitDx=0;exitDy=0;entryX=0;entryY=0.5;entryDx=0;entryDy=0;" parent="1" source="y91Bqe_7xXxEDmseq83t-142" target="GcbjipwZdxQqbnMk5Tjc-12" edge="1">
          <mxGeometry relative="1" as="geometry">
            <mxPoint x="-520" y="710" as="sourcePoint" />
            <mxPoint x="-360" y="710" as="targetPoint" />
            <Array as="points">
              <mxPoint x="-510" y="626" />
            </Array>
          </mxGeometry>
        </mxCell>
        <mxCell id="GcbjipwZdxQqbnMk5Tjc-18" value="" style="endArrow=none;html=1;rounded=0;exitX=0.25;exitY=1;exitDx=0;exitDy=0;entryX=0;entryY=0.5;entryDx=0;entryDy=0;" parent="1" source="y91Bqe_7xXxEDmseq83t-142" target="GcbjipwZdxQqbnMk5Tjc-11" edge="1">
          <mxGeometry relative="1" as="geometry">
            <mxPoint x="-480" y="730" as="sourcePoint" />
            <mxPoint x="-310" y="770" as="targetPoint" />
            <Array as="points">
              <mxPoint x="-540" y="671" />
            </Array>
          </mxGeometry>
        </mxCell>
        <mxCell id="GcbjipwZdxQqbnMk5Tjc-19" value="(1, 1)" style="text;html=1;align=center;verticalAlign=middle;whiteSpace=wrap;rounded=0;" parent="1" vertex="1">
          <mxGeometry x="-245" y="600" width="29" height="22.89" as="geometry" />
        </mxCell>
        <mxCell id="GcbjipwZdxQqbnMk5Tjc-20" value="(1, 1)" style="text;html=1;align=center;verticalAlign=middle;whiteSpace=wrap;rounded=0;" parent="1" vertex="1">
          <mxGeometry x="-490" y="610" width="30" height="20" as="geometry" />
        </mxCell>
        <mxCell id="GcbjipwZdxQqbnMk5Tjc-21" value="(0, N)" style="text;html=1;align=center;verticalAlign=middle;whiteSpace=wrap;rounded=0;" parent="1" vertex="1">
          <mxGeometry x="-482.5" y="643.13" width="60" height="30" as="geometry" />
        </mxCell>
        <mxCell id="GcbjipwZdxQqbnMk5Tjc-22" value="(1, 1)" style="text;html=1;align=center;verticalAlign=middle;whiteSpace=wrap;rounded=0;" parent="1" vertex="1">
          <mxGeometry x="-153" y="602.24" width="29" height="22.89" as="geometry" />
        </mxCell>
      </root>
    </mxGraphModel>
  </diagram>
</mxfile>
